%TF.GenerationSoftware,KiCad,Pcbnew,8.0.7*%
%TF.CreationDate,2025-03-04T00:24:51+01:00*%
%TF.ProjectId,Wildeye_pcb,57696c64-6579-4655-9f70-63622e6b6963,rev?*%
%TF.SameCoordinates,Original*%
%TF.FileFunction,Copper,L1,Top*%
%TF.FilePolarity,Positive*%
%FSLAX46Y46*%
G04 Gerber Fmt 4.6, Leading zero omitted, Abs format (unit mm)*
G04 Created by KiCad (PCBNEW 8.0.7) date 2025-03-04 00:24:51*
%MOMM*%
%LPD*%
G01*
G04 APERTURE LIST*
%TA.AperFunction,ComponentPad*%
%ADD10R,1.700000X1.700000*%
%TD*%
%TA.AperFunction,ComponentPad*%
%ADD11O,1.700000X1.700000*%
%TD*%
%TA.AperFunction,ViaPad*%
%ADD12C,0.600000*%
%TD*%
%TA.AperFunction,Conductor*%
%ADD13C,0.500000*%
%TD*%
G04 APERTURE END LIST*
D10*
%TO.P,PIR_Sensor1,1,Pin_1*%
%TO.N,/G17*%
X152400000Y-106680000D03*
D11*
%TO.P,PIR_Sensor1,2,Pin_2*%
%TO.N,/3v3*%
X149860000Y-106680000D03*
%TO.P,PIR_Sensor1,3,Pin_3*%
%TO.N,/GND*%
X147320000Y-106680000D03*
%TD*%
D10*
%TO.P,GY-87_Sensor1,1,Pin_1*%
%TO.N,unconnected-(GY-87_Sensor1-Pin_1-Pad1)*%
X134620000Y-88900000D03*
D11*
%TO.P,GY-87_Sensor1,2,Pin_2*%
%TO.N,unconnected-(GY-87_Sensor1-Pin_2-Pad2)*%
X134620000Y-86360000D03*
%TO.P,GY-87_Sensor1,3,Pin_3*%
%TO.N,unconnected-(GY-87_Sensor1-Pin_3-Pad3)*%
X134620000Y-83820000D03*
%TO.P,GY-87_Sensor1,4,Pin_4*%
%TO.N,/SDA*%
X134620000Y-81280000D03*
%TO.P,GY-87_Sensor1,5,Pin_5*%
%TO.N,/SCL*%
X134620000Y-78740000D03*
%TO.P,GY-87_Sensor1,6,Pin_6*%
%TO.N,/GND*%
X134620000Y-76200000D03*
%TO.P,GY-87_Sensor1,7,Pin_7*%
%TO.N,unconnected-(GY-87_Sensor1-Pin_7-Pad7)*%
X134620000Y-73660000D03*
%TO.P,GY-87_Sensor1,8,Pin_8*%
%TO.N,/5v*%
X134620000Y-71120000D03*
%TD*%
D10*
%TO.P,LTE_Modem1,1,Pin_1*%
%TO.N,/5v*%
X147320000Y-60960000D03*
D11*
%TO.P,LTE_Modem1,2,Pin_2*%
%TO.N,/DP*%
X144780000Y-60960000D03*
%TO.P,LTE_Modem1,3,Pin_3*%
%TO.N,/DM*%
X142240000Y-60960000D03*
%TO.P,LTE_Modem1,4,Pin_4*%
%TO.N,/GND*%
X139700000Y-60960000D03*
%TD*%
D10*
%TO.P,Switch_Module1,1,Pin_1*%
%TO.N,/G27*%
X142240000Y-114300000D03*
D11*
%TO.P,Switch_Module1,2,Pin_2*%
%TO.N,/GND*%
X139700000Y-114300000D03*
%TD*%
D10*
%TO.P,BME280_Sensor1,1,Pin_1*%
%TO.N,/SDA*%
X134620000Y-104140000D03*
D11*
%TO.P,BME280_Sensor1,2,Pin_2*%
%TO.N,/SCL*%
X134620000Y-101600000D03*
%TO.P,BME280_Sensor1,3,Pin_3*%
%TO.N,/GND*%
X134620000Y-99060000D03*
%TO.P,BME280_Sensor1,4,Pin_4*%
%TO.N,/3v3*%
X134620000Y-96520000D03*
%TD*%
D10*
%TO.P,RaspberryPi_USB1,1,Pin_1*%
%TO.N,/DP*%
X154940000Y-60950000D03*
D11*
%TO.P,RaspberryPi_USB1,2,Pin_2*%
%TO.N,/DM*%
X152400000Y-60950000D03*
%TD*%
D10*
%TO.P,RaspberryPi_GPIOs1,1,Pin_1*%
%TO.N,/3v3*%
X162560000Y-111760000D03*
D11*
%TO.P,RaspberryPi_GPIOs1,2,Pin_2*%
%TO.N,/5v*%
X160020000Y-111760000D03*
%TO.P,RaspberryPi_GPIOs1,3,Pin_3*%
%TO.N,/SDA*%
X162560000Y-109220000D03*
%TO.P,RaspberryPi_GPIOs1,4,Pin_4*%
%TO.N,unconnected-(RaspberryPi_GPIOs1-Pin_4-Pad4)*%
X160020000Y-109220000D03*
%TO.P,RaspberryPi_GPIOs1,5,Pin_5*%
%TO.N,/SCL*%
X162560000Y-106680000D03*
%TO.P,RaspberryPi_GPIOs1,6,Pin_6*%
%TO.N,/GND*%
X160020000Y-106680000D03*
%TO.P,RaspberryPi_GPIOs1,7,Pin_7*%
%TO.N,unconnected-(RaspberryPi_GPIOs1-Pin_7-Pad7)*%
X162560000Y-104140000D03*
%TO.P,RaspberryPi_GPIOs1,8,Pin_8*%
%TO.N,unconnected-(RaspberryPi_GPIOs1-Pin_8-Pad8)*%
X160020000Y-104140000D03*
%TO.P,RaspberryPi_GPIOs1,9,Pin_9*%
%TO.N,unconnected-(RaspberryPi_GPIOs1-Pin_9-Pad9)*%
X162560000Y-101600000D03*
%TO.P,RaspberryPi_GPIOs1,10,Pin_10*%
%TO.N,unconnected-(RaspberryPi_GPIOs1-Pin_10-Pad10)*%
X160020000Y-101600000D03*
%TO.P,RaspberryPi_GPIOs1,11,Pin_11*%
%TO.N,/G17*%
X162560000Y-99060000D03*
%TO.P,RaspberryPi_GPIOs1,12,Pin_12*%
%TO.N,unconnected-(RaspberryPi_GPIOs1-Pin_12-Pad12)*%
X160020000Y-99060000D03*
%TO.P,RaspberryPi_GPIOs1,13,Pin_13*%
%TO.N,/G27*%
X162560000Y-96520000D03*
%TO.P,RaspberryPi_GPIOs1,14,Pin_14*%
%TO.N,unconnected-(RaspberryPi_GPIOs1-Pin_14-Pad14)*%
X160020000Y-96520000D03*
%TO.P,RaspberryPi_GPIOs1,15,Pin_15*%
%TO.N,unconnected-(RaspberryPi_GPIOs1-Pin_15-Pad15)*%
X162560000Y-93980000D03*
%TO.P,RaspberryPi_GPIOs1,16,Pin_16*%
%TO.N,unconnected-(RaspberryPi_GPIOs1-Pin_16-Pad16)*%
X160020000Y-93980000D03*
%TO.P,RaspberryPi_GPIOs1,17,Pin_17*%
%TO.N,unconnected-(RaspberryPi_GPIOs1-Pin_17-Pad17)*%
X162560000Y-91440000D03*
%TO.P,RaspberryPi_GPIOs1,18,Pin_18*%
%TO.N,unconnected-(RaspberryPi_GPIOs1-Pin_18-Pad18)*%
X160020000Y-91440000D03*
%TO.P,RaspberryPi_GPIOs1,19,Pin_19*%
%TO.N,unconnected-(RaspberryPi_GPIOs1-Pin_19-Pad19)*%
X162560000Y-88900000D03*
%TO.P,RaspberryPi_GPIOs1,20,Pin_20*%
%TO.N,unconnected-(RaspberryPi_GPIOs1-Pin_20-Pad20)*%
X160020000Y-88900000D03*
%TO.P,RaspberryPi_GPIOs1,21,Pin_21*%
%TO.N,unconnected-(RaspberryPi_GPIOs1-Pin_21-Pad21)*%
X162560000Y-86360000D03*
%TO.P,RaspberryPi_GPIOs1,22,Pin_22*%
%TO.N,unconnected-(RaspberryPi_GPIOs1-Pin_22-Pad22)*%
X160020000Y-86360000D03*
%TO.P,RaspberryPi_GPIOs1,23,Pin_23*%
%TO.N,unconnected-(RaspberryPi_GPIOs1-Pin_23-Pad23)*%
X162560000Y-83820000D03*
%TO.P,RaspberryPi_GPIOs1,24,Pin_24*%
%TO.N,unconnected-(RaspberryPi_GPIOs1-Pin_24-Pad24)*%
X160020000Y-83820000D03*
%TO.P,RaspberryPi_GPIOs1,25,Pin_25*%
%TO.N,unconnected-(RaspberryPi_GPIOs1-Pin_25-Pad25)*%
X162560000Y-81280000D03*
%TO.P,RaspberryPi_GPIOs1,26,Pin_26*%
%TO.N,unconnected-(RaspberryPi_GPIOs1-Pin_26-Pad26)*%
X160020000Y-81280000D03*
%TO.P,RaspberryPi_GPIOs1,27,Pin_27*%
%TO.N,unconnected-(RaspberryPi_GPIOs1-Pin_27-Pad27)*%
X162560000Y-78740000D03*
%TO.P,RaspberryPi_GPIOs1,28,Pin_28*%
%TO.N,unconnected-(RaspberryPi_GPIOs1-Pin_28-Pad28)*%
X160020000Y-78740000D03*
%TO.P,RaspberryPi_GPIOs1,29,Pin_29*%
%TO.N,unconnected-(RaspberryPi_GPIOs1-Pin_29-Pad29)*%
X162560000Y-76200000D03*
%TO.P,RaspberryPi_GPIOs1,30,Pin_30*%
%TO.N,unconnected-(RaspberryPi_GPIOs1-Pin_30-Pad30)*%
X160020000Y-76200000D03*
%TO.P,RaspberryPi_GPIOs1,31,Pin_31*%
%TO.N,unconnected-(RaspberryPi_GPIOs1-Pin_31-Pad31)*%
X162560000Y-73660000D03*
%TO.P,RaspberryPi_GPIOs1,32,Pin_32*%
%TO.N,unconnected-(RaspberryPi_GPIOs1-Pin_32-Pad32)*%
X160020000Y-73660000D03*
%TO.P,RaspberryPi_GPIOs1,33,Pin_33*%
%TO.N,unconnected-(RaspberryPi_GPIOs1-Pin_33-Pad33)*%
X162560000Y-71120000D03*
%TO.P,RaspberryPi_GPIOs1,34,Pin_34*%
%TO.N,unconnected-(RaspberryPi_GPIOs1-Pin_34-Pad34)*%
X160020000Y-71120000D03*
%TO.P,RaspberryPi_GPIOs1,35,Pin_35*%
%TO.N,unconnected-(RaspberryPi_GPIOs1-Pin_35-Pad35)*%
X162560000Y-68580000D03*
%TO.P,RaspberryPi_GPIOs1,36,Pin_36*%
%TO.N,unconnected-(RaspberryPi_GPIOs1-Pin_36-Pad36)*%
X160020000Y-68580000D03*
%TO.P,RaspberryPi_GPIOs1,37,Pin_37*%
%TO.N,unconnected-(RaspberryPi_GPIOs1-Pin_37-Pad37)*%
X162560000Y-66040000D03*
%TO.P,RaspberryPi_GPIOs1,38,Pin_38*%
%TO.N,unconnected-(RaspberryPi_GPIOs1-Pin_38-Pad38)*%
X160020000Y-66040000D03*
%TO.P,RaspberryPi_GPIOs1,39,Pin_39*%
%TO.N,unconnected-(RaspberryPi_GPIOs1-Pin_39-Pad39)*%
X162560000Y-63500000D03*
%TO.P,RaspberryPi_GPIOs1,40,Pin_40*%
%TO.N,unconnected-(RaspberryPi_GPIOs1-Pin_40-Pad40)*%
X160020000Y-63500000D03*
%TD*%
D10*
%TO.P,Powerbank_Power1,1,5V*%
%TO.N,/5v*%
X152400000Y-114300000D03*
D11*
%TO.P,Powerbank_Power1,2,GND*%
%TO.N,/GND*%
X149860000Y-114300000D03*
%TD*%
D12*
%TO.N,/SCL*%
X133218300Y-111628300D03*
%TO.N,/3v3*%
X156152200Y-113404800D03*
X148886000Y-104248100D03*
%TO.N,/G27*%
X154305000Y-110888100D03*
%TO.N,/5v*%
X147320000Y-69215000D03*
%TD*%
D13*
%TO.N,/SCL*%
X133218300Y-111628300D02*
X133218300Y-103001700D01*
X134620000Y-78740000D02*
X132403300Y-80956700D01*
X133218300Y-103001700D02*
X134620000Y-101600000D01*
X132403300Y-91908350D02*
X136044700Y-95549750D01*
X136044700Y-100175300D02*
X134620000Y-101600000D01*
X132403300Y-80956700D02*
X132403300Y-91908350D01*
X136044700Y-95549750D02*
X136044700Y-100175300D01*
%TO.N,/3v3*%
X148886000Y-104248100D02*
X149860000Y-105222100D01*
X134620000Y-96454150D02*
X134620000Y-96520000D01*
X155183100Y-113404800D02*
X156152200Y-113404800D01*
X149860000Y-106680000D02*
X149860000Y-108081700D01*
X149860000Y-105222100D02*
X149860000Y-106680000D01*
X149860000Y-108081700D02*
X155183100Y-113404800D01*
%TO.N,/SDA*%
X133205000Y-82695000D02*
X134620000Y-81280000D01*
X136846400Y-94063025D02*
X133205000Y-90421625D01*
X134620000Y-104140000D02*
X136846400Y-101913600D01*
X133205000Y-90421625D02*
X133205000Y-82695000D01*
X136846400Y-101913600D02*
X136846400Y-94063025D01*
%TO.N,/GND*%
X134620000Y-76200000D02*
X139700000Y-76200000D01*
X139700000Y-76200000D02*
X139700000Y-114300000D01*
X147320000Y-111760000D02*
X147320000Y-106680000D01*
X149860000Y-114300000D02*
X147320000Y-111760000D01*
X139700000Y-60960000D02*
X139700000Y-76200000D01*
%TO.N,/G17*%
X163601900Y-113203900D02*
X158923900Y-113203900D01*
X163961700Y-112844100D02*
X163601900Y-113203900D01*
X163961700Y-100461700D02*
X163961700Y-112844100D01*
X162560000Y-99060000D02*
X163961700Y-100461700D01*
X158923900Y-113203900D02*
X152400000Y-106680000D01*
%TO.N,/G27*%
X158459100Y-114017100D02*
X163947200Y-114017100D01*
X164779400Y-98739400D02*
X162560000Y-96520000D01*
X154305000Y-110888100D02*
X155330100Y-110888100D01*
X155330100Y-110888100D02*
X158459100Y-114017100D01*
X164779400Y-113184900D02*
X164779400Y-98739400D01*
X163947200Y-114017100D02*
X164779400Y-113184900D01*
%TO.N,/5v*%
X147320000Y-69215000D02*
X156845000Y-78740000D01*
X147320000Y-69215000D02*
X147320000Y-60960000D01*
X156845000Y-78740000D02*
X156845000Y-108585000D01*
X156845000Y-108585000D02*
X160020000Y-111760000D01*
%TD*%
M02*
