%TF.GenerationSoftware,KiCad,Pcbnew,8.0.7*%
%TF.CreationDate,2025-03-04T00:24:51+01:00*%
%TF.ProjectId,Wildeye_pcb,57696c64-6579-4655-9f70-63622e6b6963,rev?*%
%TF.SameCoordinates,Original*%
%TF.FileFunction,Legend,Top*%
%TF.FilePolarity,Positive*%
%FSLAX46Y46*%
G04 Gerber Fmt 4.6, Leading zero omitted, Abs format (unit mm)*
G04 Created by KiCad (PCBNEW 8.0.7) date 2025-03-04 00:24:51*
%MOMM*%
%LPD*%
G01*
G04 APERTURE LIST*
%ADD10C,0.200000*%
%ADD11C,0.120000*%
%ADD12C,0.000000*%
%ADD13C,0.010000*%
%ADD14R,1.700000X1.700000*%
%ADD15O,1.700000X1.700000*%
%ADD16C,2.200000*%
G04 APERTURE END LIST*
D10*
X138752054Y-111579600D02*
X138894911Y-111627219D01*
X138894911Y-111627219D02*
X139133006Y-111627219D01*
X139133006Y-111627219D02*
X139228244Y-111579600D01*
X139228244Y-111579600D02*
X139275863Y-111531980D01*
X139275863Y-111531980D02*
X139323482Y-111436742D01*
X139323482Y-111436742D02*
X139323482Y-111341504D01*
X139323482Y-111341504D02*
X139275863Y-111246266D01*
X139275863Y-111246266D02*
X139228244Y-111198647D01*
X139228244Y-111198647D02*
X139133006Y-111151028D01*
X139133006Y-111151028D02*
X138942530Y-111103409D01*
X138942530Y-111103409D02*
X138847292Y-111055790D01*
X138847292Y-111055790D02*
X138799673Y-111008171D01*
X138799673Y-111008171D02*
X138752054Y-110912933D01*
X138752054Y-110912933D02*
X138752054Y-110817695D01*
X138752054Y-110817695D02*
X138799673Y-110722457D01*
X138799673Y-110722457D02*
X138847292Y-110674838D01*
X138847292Y-110674838D02*
X138942530Y-110627219D01*
X138942530Y-110627219D02*
X139180625Y-110627219D01*
X139180625Y-110627219D02*
X139323482Y-110674838D01*
X139656816Y-110960552D02*
X139847292Y-111627219D01*
X139847292Y-111627219D02*
X140037768Y-111151028D01*
X140037768Y-111151028D02*
X140228244Y-111627219D01*
X140228244Y-111627219D02*
X140418720Y-110960552D01*
X140799673Y-111627219D02*
X140799673Y-110960552D01*
X140799673Y-110627219D02*
X140752054Y-110674838D01*
X140752054Y-110674838D02*
X140799673Y-110722457D01*
X140799673Y-110722457D02*
X140847292Y-110674838D01*
X140847292Y-110674838D02*
X140799673Y-110627219D01*
X140799673Y-110627219D02*
X140799673Y-110722457D01*
X141133006Y-110960552D02*
X141513958Y-110960552D01*
X141275863Y-110627219D02*
X141275863Y-111484361D01*
X141275863Y-111484361D02*
X141323482Y-111579600D01*
X141323482Y-111579600D02*
X141418720Y-111627219D01*
X141418720Y-111627219D02*
X141513958Y-111627219D01*
X142275863Y-111579600D02*
X142180625Y-111627219D01*
X142180625Y-111627219D02*
X141990149Y-111627219D01*
X141990149Y-111627219D02*
X141894911Y-111579600D01*
X141894911Y-111579600D02*
X141847292Y-111531980D01*
X141847292Y-111531980D02*
X141799673Y-111436742D01*
X141799673Y-111436742D02*
X141799673Y-111151028D01*
X141799673Y-111151028D02*
X141847292Y-111055790D01*
X141847292Y-111055790D02*
X141894911Y-111008171D01*
X141894911Y-111008171D02*
X141990149Y-110960552D01*
X141990149Y-110960552D02*
X142180625Y-110960552D01*
X142180625Y-110960552D02*
X142275863Y-111008171D01*
X142704435Y-111627219D02*
X142704435Y-110627219D01*
X143133006Y-111627219D02*
X143133006Y-111103409D01*
X143133006Y-111103409D02*
X143085387Y-111008171D01*
X143085387Y-111008171D02*
X142990149Y-110960552D01*
X142990149Y-110960552D02*
X142847292Y-110960552D01*
X142847292Y-110960552D02*
X142752054Y-111008171D01*
X142752054Y-111008171D02*
X142704435Y-111055790D01*
X137773409Y-102801993D02*
X137821028Y-102659136D01*
X137821028Y-102659136D02*
X137868647Y-102611517D01*
X137868647Y-102611517D02*
X137963885Y-102563898D01*
X137963885Y-102563898D02*
X138106742Y-102563898D01*
X138106742Y-102563898D02*
X138201980Y-102611517D01*
X138201980Y-102611517D02*
X138249600Y-102659136D01*
X138249600Y-102659136D02*
X138297219Y-102754374D01*
X138297219Y-102754374D02*
X138297219Y-103135326D01*
X138297219Y-103135326D02*
X137297219Y-103135326D01*
X137297219Y-103135326D02*
X137297219Y-102801993D01*
X137297219Y-102801993D02*
X137344838Y-102706755D01*
X137344838Y-102706755D02*
X137392457Y-102659136D01*
X137392457Y-102659136D02*
X137487695Y-102611517D01*
X137487695Y-102611517D02*
X137582933Y-102611517D01*
X137582933Y-102611517D02*
X137678171Y-102659136D01*
X137678171Y-102659136D02*
X137725790Y-102706755D01*
X137725790Y-102706755D02*
X137773409Y-102801993D01*
X137773409Y-102801993D02*
X137773409Y-103135326D01*
X138297219Y-102135326D02*
X137297219Y-102135326D01*
X137297219Y-102135326D02*
X138011504Y-101801993D01*
X138011504Y-101801993D02*
X137297219Y-101468660D01*
X137297219Y-101468660D02*
X138297219Y-101468660D01*
X137773409Y-100992469D02*
X137773409Y-100659136D01*
X138297219Y-100516279D02*
X138297219Y-100992469D01*
X138297219Y-100992469D02*
X137297219Y-100992469D01*
X137297219Y-100992469D02*
X137297219Y-100516279D01*
X137392457Y-100135326D02*
X137344838Y-100087707D01*
X137344838Y-100087707D02*
X137297219Y-99992469D01*
X137297219Y-99992469D02*
X137297219Y-99754374D01*
X137297219Y-99754374D02*
X137344838Y-99659136D01*
X137344838Y-99659136D02*
X137392457Y-99611517D01*
X137392457Y-99611517D02*
X137487695Y-99563898D01*
X137487695Y-99563898D02*
X137582933Y-99563898D01*
X137582933Y-99563898D02*
X137725790Y-99611517D01*
X137725790Y-99611517D02*
X138297219Y-100182945D01*
X138297219Y-100182945D02*
X138297219Y-99563898D01*
X137725790Y-98992469D02*
X137678171Y-99087707D01*
X137678171Y-99087707D02*
X137630552Y-99135326D01*
X137630552Y-99135326D02*
X137535314Y-99182945D01*
X137535314Y-99182945D02*
X137487695Y-99182945D01*
X137487695Y-99182945D02*
X137392457Y-99135326D01*
X137392457Y-99135326D02*
X137344838Y-99087707D01*
X137344838Y-99087707D02*
X137297219Y-98992469D01*
X137297219Y-98992469D02*
X137297219Y-98801993D01*
X137297219Y-98801993D02*
X137344838Y-98706755D01*
X137344838Y-98706755D02*
X137392457Y-98659136D01*
X137392457Y-98659136D02*
X137487695Y-98611517D01*
X137487695Y-98611517D02*
X137535314Y-98611517D01*
X137535314Y-98611517D02*
X137630552Y-98659136D01*
X137630552Y-98659136D02*
X137678171Y-98706755D01*
X137678171Y-98706755D02*
X137725790Y-98801993D01*
X137725790Y-98801993D02*
X137725790Y-98992469D01*
X137725790Y-98992469D02*
X137773409Y-99087707D01*
X137773409Y-99087707D02*
X137821028Y-99135326D01*
X137821028Y-99135326D02*
X137916266Y-99182945D01*
X137916266Y-99182945D02*
X138106742Y-99182945D01*
X138106742Y-99182945D02*
X138201980Y-99135326D01*
X138201980Y-99135326D02*
X138249600Y-99087707D01*
X138249600Y-99087707D02*
X138297219Y-98992469D01*
X138297219Y-98992469D02*
X138297219Y-98801993D01*
X138297219Y-98801993D02*
X138249600Y-98706755D01*
X138249600Y-98706755D02*
X138201980Y-98659136D01*
X138201980Y-98659136D02*
X138106742Y-98611517D01*
X138106742Y-98611517D02*
X137916266Y-98611517D01*
X137916266Y-98611517D02*
X137821028Y-98659136D01*
X137821028Y-98659136D02*
X137773409Y-98706755D01*
X137773409Y-98706755D02*
X137725790Y-98801993D01*
X137297219Y-97992469D02*
X137297219Y-97897231D01*
X137297219Y-97897231D02*
X137344838Y-97801993D01*
X137344838Y-97801993D02*
X137392457Y-97754374D01*
X137392457Y-97754374D02*
X137487695Y-97706755D01*
X137487695Y-97706755D02*
X137678171Y-97659136D01*
X137678171Y-97659136D02*
X137916266Y-97659136D01*
X137916266Y-97659136D02*
X138106742Y-97706755D01*
X138106742Y-97706755D02*
X138201980Y-97754374D01*
X138201980Y-97754374D02*
X138249600Y-97801993D01*
X138249600Y-97801993D02*
X138297219Y-97897231D01*
X138297219Y-97897231D02*
X138297219Y-97992469D01*
X138297219Y-97992469D02*
X138249600Y-98087707D01*
X138249600Y-98087707D02*
X138201980Y-98135326D01*
X138201980Y-98135326D02*
X138106742Y-98182945D01*
X138106742Y-98182945D02*
X137916266Y-98230564D01*
X137916266Y-98230564D02*
X137678171Y-98230564D01*
X137678171Y-98230564D02*
X137487695Y-98182945D01*
X137487695Y-98182945D02*
X137392457Y-98135326D01*
X137392457Y-98135326D02*
X137344838Y-98087707D01*
X137344838Y-98087707D02*
X137297219Y-97992469D01*
X148959673Y-104007219D02*
X148959673Y-103007219D01*
X148959673Y-103007219D02*
X149340625Y-103007219D01*
X149340625Y-103007219D02*
X149435863Y-103054838D01*
X149435863Y-103054838D02*
X149483482Y-103102457D01*
X149483482Y-103102457D02*
X149531101Y-103197695D01*
X149531101Y-103197695D02*
X149531101Y-103340552D01*
X149531101Y-103340552D02*
X149483482Y-103435790D01*
X149483482Y-103435790D02*
X149435863Y-103483409D01*
X149435863Y-103483409D02*
X149340625Y-103531028D01*
X149340625Y-103531028D02*
X148959673Y-103531028D01*
X149959673Y-104007219D02*
X149959673Y-103007219D01*
X151007291Y-104007219D02*
X150673958Y-103531028D01*
X150435863Y-104007219D02*
X150435863Y-103007219D01*
X150435863Y-103007219D02*
X150816815Y-103007219D01*
X150816815Y-103007219D02*
X150912053Y-103054838D01*
X150912053Y-103054838D02*
X150959672Y-103102457D01*
X150959672Y-103102457D02*
X151007291Y-103197695D01*
X151007291Y-103197695D02*
X151007291Y-103340552D01*
X151007291Y-103340552D02*
X150959672Y-103435790D01*
X150959672Y-103435790D02*
X150912053Y-103483409D01*
X150912053Y-103483409D02*
X150816815Y-103531028D01*
X150816815Y-103531028D02*
X150435863Y-103531028D01*
X137344838Y-81910517D02*
X137297219Y-82005755D01*
X137297219Y-82005755D02*
X137297219Y-82148612D01*
X137297219Y-82148612D02*
X137344838Y-82291469D01*
X137344838Y-82291469D02*
X137440076Y-82386707D01*
X137440076Y-82386707D02*
X137535314Y-82434326D01*
X137535314Y-82434326D02*
X137725790Y-82481945D01*
X137725790Y-82481945D02*
X137868647Y-82481945D01*
X137868647Y-82481945D02*
X138059123Y-82434326D01*
X138059123Y-82434326D02*
X138154361Y-82386707D01*
X138154361Y-82386707D02*
X138249600Y-82291469D01*
X138249600Y-82291469D02*
X138297219Y-82148612D01*
X138297219Y-82148612D02*
X138297219Y-82053374D01*
X138297219Y-82053374D02*
X138249600Y-81910517D01*
X138249600Y-81910517D02*
X138201980Y-81862898D01*
X138201980Y-81862898D02*
X137868647Y-81862898D01*
X137868647Y-81862898D02*
X137868647Y-82053374D01*
X137821028Y-81243850D02*
X138297219Y-81243850D01*
X137297219Y-81577183D02*
X137821028Y-81243850D01*
X137821028Y-81243850D02*
X137297219Y-80910517D01*
X137916266Y-80577183D02*
X137916266Y-79815279D01*
X137725790Y-79196231D02*
X137678171Y-79291469D01*
X137678171Y-79291469D02*
X137630552Y-79339088D01*
X137630552Y-79339088D02*
X137535314Y-79386707D01*
X137535314Y-79386707D02*
X137487695Y-79386707D01*
X137487695Y-79386707D02*
X137392457Y-79339088D01*
X137392457Y-79339088D02*
X137344838Y-79291469D01*
X137344838Y-79291469D02*
X137297219Y-79196231D01*
X137297219Y-79196231D02*
X137297219Y-79005755D01*
X137297219Y-79005755D02*
X137344838Y-78910517D01*
X137344838Y-78910517D02*
X137392457Y-78862898D01*
X137392457Y-78862898D02*
X137487695Y-78815279D01*
X137487695Y-78815279D02*
X137535314Y-78815279D01*
X137535314Y-78815279D02*
X137630552Y-78862898D01*
X137630552Y-78862898D02*
X137678171Y-78910517D01*
X137678171Y-78910517D02*
X137725790Y-79005755D01*
X137725790Y-79005755D02*
X137725790Y-79196231D01*
X137725790Y-79196231D02*
X137773409Y-79291469D01*
X137773409Y-79291469D02*
X137821028Y-79339088D01*
X137821028Y-79339088D02*
X137916266Y-79386707D01*
X137916266Y-79386707D02*
X138106742Y-79386707D01*
X138106742Y-79386707D02*
X138201980Y-79339088D01*
X138201980Y-79339088D02*
X138249600Y-79291469D01*
X138249600Y-79291469D02*
X138297219Y-79196231D01*
X138297219Y-79196231D02*
X138297219Y-79005755D01*
X138297219Y-79005755D02*
X138249600Y-78910517D01*
X138249600Y-78910517D02*
X138201980Y-78862898D01*
X138201980Y-78862898D02*
X138106742Y-78815279D01*
X138106742Y-78815279D02*
X137916266Y-78815279D01*
X137916266Y-78815279D02*
X137821028Y-78862898D01*
X137821028Y-78862898D02*
X137773409Y-78910517D01*
X137773409Y-78910517D02*
X137725790Y-79005755D01*
X137297219Y-78481945D02*
X137297219Y-77815279D01*
X137297219Y-77815279D02*
X138297219Y-78243850D01*
X148959673Y-111627219D02*
X148959673Y-110627219D01*
X148959673Y-110627219D02*
X149340625Y-110627219D01*
X149340625Y-110627219D02*
X149435863Y-110674838D01*
X149435863Y-110674838D02*
X149483482Y-110722457D01*
X149483482Y-110722457D02*
X149531101Y-110817695D01*
X149531101Y-110817695D02*
X149531101Y-110960552D01*
X149531101Y-110960552D02*
X149483482Y-111055790D01*
X149483482Y-111055790D02*
X149435863Y-111103409D01*
X149435863Y-111103409D02*
X149340625Y-111151028D01*
X149340625Y-111151028D02*
X148959673Y-111151028D01*
X150102530Y-111627219D02*
X150007292Y-111579600D01*
X150007292Y-111579600D02*
X149959673Y-111531980D01*
X149959673Y-111531980D02*
X149912054Y-111436742D01*
X149912054Y-111436742D02*
X149912054Y-111151028D01*
X149912054Y-111151028D02*
X149959673Y-111055790D01*
X149959673Y-111055790D02*
X150007292Y-111008171D01*
X150007292Y-111008171D02*
X150102530Y-110960552D01*
X150102530Y-110960552D02*
X150245387Y-110960552D01*
X150245387Y-110960552D02*
X150340625Y-111008171D01*
X150340625Y-111008171D02*
X150388244Y-111055790D01*
X150388244Y-111055790D02*
X150435863Y-111151028D01*
X150435863Y-111151028D02*
X150435863Y-111436742D01*
X150435863Y-111436742D02*
X150388244Y-111531980D01*
X150388244Y-111531980D02*
X150340625Y-111579600D01*
X150340625Y-111579600D02*
X150245387Y-111627219D01*
X150245387Y-111627219D02*
X150102530Y-111627219D01*
X150769197Y-110960552D02*
X150959673Y-111627219D01*
X150959673Y-111627219D02*
X151150149Y-111151028D01*
X151150149Y-111151028D02*
X151340625Y-111627219D01*
X151340625Y-111627219D02*
X151531101Y-110960552D01*
X152293006Y-111579600D02*
X152197768Y-111627219D01*
X152197768Y-111627219D02*
X152007292Y-111627219D01*
X152007292Y-111627219D02*
X151912054Y-111579600D01*
X151912054Y-111579600D02*
X151864435Y-111484361D01*
X151864435Y-111484361D02*
X151864435Y-111103409D01*
X151864435Y-111103409D02*
X151912054Y-111008171D01*
X151912054Y-111008171D02*
X152007292Y-110960552D01*
X152007292Y-110960552D02*
X152197768Y-110960552D01*
X152197768Y-110960552D02*
X152293006Y-111008171D01*
X152293006Y-111008171D02*
X152340625Y-111103409D01*
X152340625Y-111103409D02*
X152340625Y-111198647D01*
X152340625Y-111198647D02*
X151864435Y-111293885D01*
X152769197Y-111627219D02*
X152769197Y-110960552D01*
X152769197Y-111151028D02*
X152816816Y-111055790D01*
X152816816Y-111055790D02*
X152864435Y-111008171D01*
X152864435Y-111008171D02*
X152959673Y-110960552D01*
X152959673Y-110960552D02*
X153054911Y-110960552D01*
X154140552Y-92435564D02*
X154807219Y-92245088D01*
X154807219Y-92245088D02*
X154331028Y-92054612D01*
X154331028Y-92054612D02*
X154807219Y-91864136D01*
X154807219Y-91864136D02*
X154140552Y-91673660D01*
X154140552Y-91387945D02*
X154807219Y-91197469D01*
X154807219Y-91197469D02*
X154331028Y-91006993D01*
X154331028Y-91006993D02*
X154807219Y-90816517D01*
X154807219Y-90816517D02*
X154140552Y-90626041D01*
X154140552Y-90340326D02*
X154807219Y-90149850D01*
X154807219Y-90149850D02*
X154331028Y-89959374D01*
X154331028Y-89959374D02*
X154807219Y-89768898D01*
X154807219Y-89768898D02*
X154140552Y-89578422D01*
X154711980Y-89197469D02*
X154759600Y-89149850D01*
X154759600Y-89149850D02*
X154807219Y-89197469D01*
X154807219Y-89197469D02*
X154759600Y-89245088D01*
X154759600Y-89245088D02*
X154711980Y-89197469D01*
X154711980Y-89197469D02*
X154807219Y-89197469D01*
X154140552Y-88816517D02*
X154807219Y-88626041D01*
X154807219Y-88626041D02*
X154331028Y-88435565D01*
X154331028Y-88435565D02*
X154807219Y-88245089D01*
X154807219Y-88245089D02*
X154140552Y-88054613D01*
X154807219Y-87673660D02*
X154140552Y-87673660D01*
X153807219Y-87673660D02*
X153854838Y-87721279D01*
X153854838Y-87721279D02*
X153902457Y-87673660D01*
X153902457Y-87673660D02*
X153854838Y-87626041D01*
X153854838Y-87626041D02*
X153807219Y-87673660D01*
X153807219Y-87673660D02*
X153902457Y-87673660D01*
X154807219Y-87054613D02*
X154759600Y-87149851D01*
X154759600Y-87149851D02*
X154664361Y-87197470D01*
X154664361Y-87197470D02*
X153807219Y-87197470D01*
X154807219Y-86245089D02*
X153807219Y-86245089D01*
X154759600Y-86245089D02*
X154807219Y-86340327D01*
X154807219Y-86340327D02*
X154807219Y-86530803D01*
X154807219Y-86530803D02*
X154759600Y-86626041D01*
X154759600Y-86626041D02*
X154711980Y-86673660D01*
X154711980Y-86673660D02*
X154616742Y-86721279D01*
X154616742Y-86721279D02*
X154331028Y-86721279D01*
X154331028Y-86721279D02*
X154235790Y-86673660D01*
X154235790Y-86673660D02*
X154188171Y-86626041D01*
X154188171Y-86626041D02*
X154140552Y-86530803D01*
X154140552Y-86530803D02*
X154140552Y-86340327D01*
X154140552Y-86340327D02*
X154188171Y-86245089D01*
X154759600Y-85387946D02*
X154807219Y-85483184D01*
X154807219Y-85483184D02*
X154807219Y-85673660D01*
X154807219Y-85673660D02*
X154759600Y-85768898D01*
X154759600Y-85768898D02*
X154664361Y-85816517D01*
X154664361Y-85816517D02*
X154283409Y-85816517D01*
X154283409Y-85816517D02*
X154188171Y-85768898D01*
X154188171Y-85768898D02*
X154140552Y-85673660D01*
X154140552Y-85673660D02*
X154140552Y-85483184D01*
X154140552Y-85483184D02*
X154188171Y-85387946D01*
X154188171Y-85387946D02*
X154283409Y-85340327D01*
X154283409Y-85340327D02*
X154378647Y-85340327D01*
X154378647Y-85340327D02*
X154473885Y-85816517D01*
X154140552Y-85006993D02*
X154807219Y-84768898D01*
X154140552Y-84530803D02*
X154807219Y-84768898D01*
X154807219Y-84768898D02*
X155045314Y-84864136D01*
X155045314Y-84864136D02*
X155092933Y-84911755D01*
X155092933Y-84911755D02*
X155140552Y-85006993D01*
X154759600Y-83768898D02*
X154807219Y-83864136D01*
X154807219Y-83864136D02*
X154807219Y-84054612D01*
X154807219Y-84054612D02*
X154759600Y-84149850D01*
X154759600Y-84149850D02*
X154664361Y-84197469D01*
X154664361Y-84197469D02*
X154283409Y-84197469D01*
X154283409Y-84197469D02*
X154188171Y-84149850D01*
X154188171Y-84149850D02*
X154140552Y-84054612D01*
X154140552Y-84054612D02*
X154140552Y-83864136D01*
X154140552Y-83864136D02*
X154188171Y-83768898D01*
X154188171Y-83768898D02*
X154283409Y-83721279D01*
X154283409Y-83721279D02*
X154378647Y-83721279D01*
X154378647Y-83721279D02*
X154473885Y-84197469D01*
X154711980Y-83292707D02*
X154759600Y-83245088D01*
X154759600Y-83245088D02*
X154807219Y-83292707D01*
X154807219Y-83292707D02*
X154759600Y-83340326D01*
X154759600Y-83340326D02*
X154711980Y-83292707D01*
X154711980Y-83292707D02*
X154807219Y-83292707D01*
X154140552Y-82959374D02*
X154140552Y-82578422D01*
X153807219Y-82816517D02*
X154664361Y-82816517D01*
X154664361Y-82816517D02*
X154759600Y-82768898D01*
X154759600Y-82768898D02*
X154807219Y-82673660D01*
X154807219Y-82673660D02*
X154807219Y-82578422D01*
X154759600Y-81864136D02*
X154807219Y-81959374D01*
X154807219Y-81959374D02*
X154807219Y-82149850D01*
X154807219Y-82149850D02*
X154759600Y-82245088D01*
X154759600Y-82245088D02*
X154664361Y-82292707D01*
X154664361Y-82292707D02*
X154283409Y-82292707D01*
X154283409Y-82292707D02*
X154188171Y-82245088D01*
X154188171Y-82245088D02*
X154140552Y-82149850D01*
X154140552Y-82149850D02*
X154140552Y-81959374D01*
X154140552Y-81959374D02*
X154188171Y-81864136D01*
X154188171Y-81864136D02*
X154283409Y-81816517D01*
X154283409Y-81816517D02*
X154378647Y-81816517D01*
X154378647Y-81816517D02*
X154473885Y-82292707D01*
X154759600Y-80959374D02*
X154807219Y-81054612D01*
X154807219Y-81054612D02*
X154807219Y-81245088D01*
X154807219Y-81245088D02*
X154759600Y-81340326D01*
X154759600Y-81340326D02*
X154711980Y-81387945D01*
X154711980Y-81387945D02*
X154616742Y-81435564D01*
X154616742Y-81435564D02*
X154331028Y-81435564D01*
X154331028Y-81435564D02*
X154235790Y-81387945D01*
X154235790Y-81387945D02*
X154188171Y-81340326D01*
X154188171Y-81340326D02*
X154140552Y-81245088D01*
X154140552Y-81245088D02*
X154140552Y-81054612D01*
X154140552Y-81054612D02*
X154188171Y-80959374D01*
X154807219Y-80530802D02*
X153807219Y-80530802D01*
X154807219Y-80102231D02*
X154283409Y-80102231D01*
X154283409Y-80102231D02*
X154188171Y-80149850D01*
X154188171Y-80149850D02*
X154140552Y-80245088D01*
X154140552Y-80245088D02*
X154140552Y-80387945D01*
X154140552Y-80387945D02*
X154188171Y-80483183D01*
X154188171Y-80483183D02*
X154235790Y-80530802D01*
X149531101Y-64637219D02*
X149197768Y-64161028D01*
X148959673Y-64637219D02*
X148959673Y-63637219D01*
X148959673Y-63637219D02*
X149340625Y-63637219D01*
X149340625Y-63637219D02*
X149435863Y-63684838D01*
X149435863Y-63684838D02*
X149483482Y-63732457D01*
X149483482Y-63732457D02*
X149531101Y-63827695D01*
X149531101Y-63827695D02*
X149531101Y-63970552D01*
X149531101Y-63970552D02*
X149483482Y-64065790D01*
X149483482Y-64065790D02*
X149435863Y-64113409D01*
X149435863Y-64113409D02*
X149340625Y-64161028D01*
X149340625Y-64161028D02*
X148959673Y-64161028D01*
X150388244Y-64637219D02*
X150388244Y-64113409D01*
X150388244Y-64113409D02*
X150340625Y-64018171D01*
X150340625Y-64018171D02*
X150245387Y-63970552D01*
X150245387Y-63970552D02*
X150054911Y-63970552D01*
X150054911Y-63970552D02*
X149959673Y-64018171D01*
X150388244Y-64589600D02*
X150293006Y-64637219D01*
X150293006Y-64637219D02*
X150054911Y-64637219D01*
X150054911Y-64637219D02*
X149959673Y-64589600D01*
X149959673Y-64589600D02*
X149912054Y-64494361D01*
X149912054Y-64494361D02*
X149912054Y-64399123D01*
X149912054Y-64399123D02*
X149959673Y-64303885D01*
X149959673Y-64303885D02*
X150054911Y-64256266D01*
X150054911Y-64256266D02*
X150293006Y-64256266D01*
X150293006Y-64256266D02*
X150388244Y-64208647D01*
X150816816Y-64589600D02*
X150912054Y-64637219D01*
X150912054Y-64637219D02*
X151102530Y-64637219D01*
X151102530Y-64637219D02*
X151197768Y-64589600D01*
X151197768Y-64589600D02*
X151245387Y-64494361D01*
X151245387Y-64494361D02*
X151245387Y-64446742D01*
X151245387Y-64446742D02*
X151197768Y-64351504D01*
X151197768Y-64351504D02*
X151102530Y-64303885D01*
X151102530Y-64303885D02*
X150959673Y-64303885D01*
X150959673Y-64303885D02*
X150864435Y-64256266D01*
X150864435Y-64256266D02*
X150816816Y-64161028D01*
X150816816Y-64161028D02*
X150816816Y-64113409D01*
X150816816Y-64113409D02*
X150864435Y-64018171D01*
X150864435Y-64018171D02*
X150959673Y-63970552D01*
X150959673Y-63970552D02*
X151102530Y-63970552D01*
X151102530Y-63970552D02*
X151197768Y-64018171D01*
X151673959Y-63970552D02*
X151673959Y-64970552D01*
X151673959Y-64018171D02*
X151769197Y-63970552D01*
X151769197Y-63970552D02*
X151959673Y-63970552D01*
X151959673Y-63970552D02*
X152054911Y-64018171D01*
X152054911Y-64018171D02*
X152102530Y-64065790D01*
X152102530Y-64065790D02*
X152150149Y-64161028D01*
X152150149Y-64161028D02*
X152150149Y-64446742D01*
X152150149Y-64446742D02*
X152102530Y-64541980D01*
X152102530Y-64541980D02*
X152054911Y-64589600D01*
X152054911Y-64589600D02*
X151959673Y-64637219D01*
X151959673Y-64637219D02*
X151769197Y-64637219D01*
X151769197Y-64637219D02*
X151673959Y-64589600D01*
X152578721Y-64637219D02*
X152578721Y-63637219D01*
X152578721Y-63637219D02*
X152959673Y-63637219D01*
X152959673Y-63637219D02*
X153054911Y-63684838D01*
X153054911Y-63684838D02*
X153102530Y-63732457D01*
X153102530Y-63732457D02*
X153150149Y-63827695D01*
X153150149Y-63827695D02*
X153150149Y-63970552D01*
X153150149Y-63970552D02*
X153102530Y-64065790D01*
X153102530Y-64065790D02*
X153054911Y-64113409D01*
X153054911Y-64113409D02*
X152959673Y-64161028D01*
X152959673Y-64161028D02*
X152578721Y-64161028D01*
X153578721Y-64637219D02*
X153578721Y-63970552D01*
X153578721Y-63637219D02*
X153531102Y-63684838D01*
X153531102Y-63684838D02*
X153578721Y-63732457D01*
X153578721Y-63732457D02*
X153626340Y-63684838D01*
X153626340Y-63684838D02*
X153578721Y-63637219D01*
X153578721Y-63637219D02*
X153578721Y-63732457D01*
X154054911Y-64256266D02*
X154816816Y-64256266D01*
X155293006Y-63637219D02*
X155293006Y-64446742D01*
X155293006Y-64446742D02*
X155340625Y-64541980D01*
X155340625Y-64541980D02*
X155388244Y-64589600D01*
X155388244Y-64589600D02*
X155483482Y-64637219D01*
X155483482Y-64637219D02*
X155673958Y-64637219D01*
X155673958Y-64637219D02*
X155769196Y-64589600D01*
X155769196Y-64589600D02*
X155816815Y-64541980D01*
X155816815Y-64541980D02*
X155864434Y-64446742D01*
X155864434Y-64446742D02*
X155864434Y-63637219D01*
X156293006Y-64589600D02*
X156435863Y-64637219D01*
X156435863Y-64637219D02*
X156673958Y-64637219D01*
X156673958Y-64637219D02*
X156769196Y-64589600D01*
X156769196Y-64589600D02*
X156816815Y-64541980D01*
X156816815Y-64541980D02*
X156864434Y-64446742D01*
X156864434Y-64446742D02*
X156864434Y-64351504D01*
X156864434Y-64351504D02*
X156816815Y-64256266D01*
X156816815Y-64256266D02*
X156769196Y-64208647D01*
X156769196Y-64208647D02*
X156673958Y-64161028D01*
X156673958Y-64161028D02*
X156483482Y-64113409D01*
X156483482Y-64113409D02*
X156388244Y-64065790D01*
X156388244Y-64065790D02*
X156340625Y-64018171D01*
X156340625Y-64018171D02*
X156293006Y-63922933D01*
X156293006Y-63922933D02*
X156293006Y-63827695D01*
X156293006Y-63827695D02*
X156340625Y-63732457D01*
X156340625Y-63732457D02*
X156388244Y-63684838D01*
X156388244Y-63684838D02*
X156483482Y-63637219D01*
X156483482Y-63637219D02*
X156721577Y-63637219D01*
X156721577Y-63637219D02*
X156864434Y-63684838D01*
X157626339Y-64113409D02*
X157769196Y-64161028D01*
X157769196Y-64161028D02*
X157816815Y-64208647D01*
X157816815Y-64208647D02*
X157864434Y-64303885D01*
X157864434Y-64303885D02*
X157864434Y-64446742D01*
X157864434Y-64446742D02*
X157816815Y-64541980D01*
X157816815Y-64541980D02*
X157769196Y-64589600D01*
X157769196Y-64589600D02*
X157673958Y-64637219D01*
X157673958Y-64637219D02*
X157293006Y-64637219D01*
X157293006Y-64637219D02*
X157293006Y-63637219D01*
X157293006Y-63637219D02*
X157626339Y-63637219D01*
X157626339Y-63637219D02*
X157721577Y-63684838D01*
X157721577Y-63684838D02*
X157769196Y-63732457D01*
X157769196Y-63732457D02*
X157816815Y-63827695D01*
X157816815Y-63827695D02*
X157816815Y-63922933D01*
X157816815Y-63922933D02*
X157769196Y-64018171D01*
X157769196Y-64018171D02*
X157721577Y-64065790D01*
X157721577Y-64065790D02*
X157626339Y-64113409D01*
X157626339Y-64113409D02*
X157293006Y-64113409D01*
X166237219Y-93038898D02*
X165761028Y-93372231D01*
X166237219Y-93610326D02*
X165237219Y-93610326D01*
X165237219Y-93610326D02*
X165237219Y-93229374D01*
X165237219Y-93229374D02*
X165284838Y-93134136D01*
X165284838Y-93134136D02*
X165332457Y-93086517D01*
X165332457Y-93086517D02*
X165427695Y-93038898D01*
X165427695Y-93038898D02*
X165570552Y-93038898D01*
X165570552Y-93038898D02*
X165665790Y-93086517D01*
X165665790Y-93086517D02*
X165713409Y-93134136D01*
X165713409Y-93134136D02*
X165761028Y-93229374D01*
X165761028Y-93229374D02*
X165761028Y-93610326D01*
X166237219Y-92181755D02*
X165713409Y-92181755D01*
X165713409Y-92181755D02*
X165618171Y-92229374D01*
X165618171Y-92229374D02*
X165570552Y-92324612D01*
X165570552Y-92324612D02*
X165570552Y-92515088D01*
X165570552Y-92515088D02*
X165618171Y-92610326D01*
X166189600Y-92181755D02*
X166237219Y-92276993D01*
X166237219Y-92276993D02*
X166237219Y-92515088D01*
X166237219Y-92515088D02*
X166189600Y-92610326D01*
X166189600Y-92610326D02*
X166094361Y-92657945D01*
X166094361Y-92657945D02*
X165999123Y-92657945D01*
X165999123Y-92657945D02*
X165903885Y-92610326D01*
X165903885Y-92610326D02*
X165856266Y-92515088D01*
X165856266Y-92515088D02*
X165856266Y-92276993D01*
X165856266Y-92276993D02*
X165808647Y-92181755D01*
X166189600Y-91753183D02*
X166237219Y-91657945D01*
X166237219Y-91657945D02*
X166237219Y-91467469D01*
X166237219Y-91467469D02*
X166189600Y-91372231D01*
X166189600Y-91372231D02*
X166094361Y-91324612D01*
X166094361Y-91324612D02*
X166046742Y-91324612D01*
X166046742Y-91324612D02*
X165951504Y-91372231D01*
X165951504Y-91372231D02*
X165903885Y-91467469D01*
X165903885Y-91467469D02*
X165903885Y-91610326D01*
X165903885Y-91610326D02*
X165856266Y-91705564D01*
X165856266Y-91705564D02*
X165761028Y-91753183D01*
X165761028Y-91753183D02*
X165713409Y-91753183D01*
X165713409Y-91753183D02*
X165618171Y-91705564D01*
X165618171Y-91705564D02*
X165570552Y-91610326D01*
X165570552Y-91610326D02*
X165570552Y-91467469D01*
X165570552Y-91467469D02*
X165618171Y-91372231D01*
X165570552Y-90896040D02*
X166570552Y-90896040D01*
X165618171Y-90896040D02*
X165570552Y-90800802D01*
X165570552Y-90800802D02*
X165570552Y-90610326D01*
X165570552Y-90610326D02*
X165618171Y-90515088D01*
X165618171Y-90515088D02*
X165665790Y-90467469D01*
X165665790Y-90467469D02*
X165761028Y-90419850D01*
X165761028Y-90419850D02*
X166046742Y-90419850D01*
X166046742Y-90419850D02*
X166141980Y-90467469D01*
X166141980Y-90467469D02*
X166189600Y-90515088D01*
X166189600Y-90515088D02*
X166237219Y-90610326D01*
X166237219Y-90610326D02*
X166237219Y-90800802D01*
X166237219Y-90800802D02*
X166189600Y-90896040D01*
X166237219Y-89991278D02*
X165237219Y-89991278D01*
X165237219Y-89991278D02*
X165237219Y-89610326D01*
X165237219Y-89610326D02*
X165284838Y-89515088D01*
X165284838Y-89515088D02*
X165332457Y-89467469D01*
X165332457Y-89467469D02*
X165427695Y-89419850D01*
X165427695Y-89419850D02*
X165570552Y-89419850D01*
X165570552Y-89419850D02*
X165665790Y-89467469D01*
X165665790Y-89467469D02*
X165713409Y-89515088D01*
X165713409Y-89515088D02*
X165761028Y-89610326D01*
X165761028Y-89610326D02*
X165761028Y-89991278D01*
X166237219Y-88991278D02*
X165570552Y-88991278D01*
X165237219Y-88991278D02*
X165284838Y-89038897D01*
X165284838Y-89038897D02*
X165332457Y-88991278D01*
X165332457Y-88991278D02*
X165284838Y-88943659D01*
X165284838Y-88943659D02*
X165237219Y-88991278D01*
X165237219Y-88991278D02*
X165332457Y-88991278D01*
X165856266Y-88515088D02*
X165856266Y-87753184D01*
X165284838Y-86753184D02*
X165237219Y-86848422D01*
X165237219Y-86848422D02*
X165237219Y-86991279D01*
X165237219Y-86991279D02*
X165284838Y-87134136D01*
X165284838Y-87134136D02*
X165380076Y-87229374D01*
X165380076Y-87229374D02*
X165475314Y-87276993D01*
X165475314Y-87276993D02*
X165665790Y-87324612D01*
X165665790Y-87324612D02*
X165808647Y-87324612D01*
X165808647Y-87324612D02*
X165999123Y-87276993D01*
X165999123Y-87276993D02*
X166094361Y-87229374D01*
X166094361Y-87229374D02*
X166189600Y-87134136D01*
X166189600Y-87134136D02*
X166237219Y-86991279D01*
X166237219Y-86991279D02*
X166237219Y-86896041D01*
X166237219Y-86896041D02*
X166189600Y-86753184D01*
X166189600Y-86753184D02*
X166141980Y-86705565D01*
X166141980Y-86705565D02*
X165808647Y-86705565D01*
X165808647Y-86705565D02*
X165808647Y-86896041D01*
X166237219Y-86276993D02*
X165237219Y-86276993D01*
X165237219Y-86276993D02*
X165237219Y-85896041D01*
X165237219Y-85896041D02*
X165284838Y-85800803D01*
X165284838Y-85800803D02*
X165332457Y-85753184D01*
X165332457Y-85753184D02*
X165427695Y-85705565D01*
X165427695Y-85705565D02*
X165570552Y-85705565D01*
X165570552Y-85705565D02*
X165665790Y-85753184D01*
X165665790Y-85753184D02*
X165713409Y-85800803D01*
X165713409Y-85800803D02*
X165761028Y-85896041D01*
X165761028Y-85896041D02*
X165761028Y-86276993D01*
X166237219Y-85276993D02*
X165237219Y-85276993D01*
X165237219Y-84610327D02*
X165237219Y-84419851D01*
X165237219Y-84419851D02*
X165284838Y-84324613D01*
X165284838Y-84324613D02*
X165380076Y-84229375D01*
X165380076Y-84229375D02*
X165570552Y-84181756D01*
X165570552Y-84181756D02*
X165903885Y-84181756D01*
X165903885Y-84181756D02*
X166094361Y-84229375D01*
X166094361Y-84229375D02*
X166189600Y-84324613D01*
X166189600Y-84324613D02*
X166237219Y-84419851D01*
X166237219Y-84419851D02*
X166237219Y-84610327D01*
X166237219Y-84610327D02*
X166189600Y-84705565D01*
X166189600Y-84705565D02*
X166094361Y-84800803D01*
X166094361Y-84800803D02*
X165903885Y-84848422D01*
X165903885Y-84848422D02*
X165570552Y-84848422D01*
X165570552Y-84848422D02*
X165380076Y-84800803D01*
X165380076Y-84800803D02*
X165284838Y-84705565D01*
X165284838Y-84705565D02*
X165237219Y-84610327D01*
X166189600Y-83800803D02*
X166237219Y-83705565D01*
X166237219Y-83705565D02*
X166237219Y-83515089D01*
X166237219Y-83515089D02*
X166189600Y-83419851D01*
X166189600Y-83419851D02*
X166094361Y-83372232D01*
X166094361Y-83372232D02*
X166046742Y-83372232D01*
X166046742Y-83372232D02*
X165951504Y-83419851D01*
X165951504Y-83419851D02*
X165903885Y-83515089D01*
X165903885Y-83515089D02*
X165903885Y-83657946D01*
X165903885Y-83657946D02*
X165856266Y-83753184D01*
X165856266Y-83753184D02*
X165761028Y-83800803D01*
X165761028Y-83800803D02*
X165713409Y-83800803D01*
X165713409Y-83800803D02*
X165618171Y-83753184D01*
X165618171Y-83753184D02*
X165570552Y-83657946D01*
X165570552Y-83657946D02*
X165570552Y-83515089D01*
X165570552Y-83515089D02*
X165618171Y-83419851D01*
X143085863Y-64637219D02*
X142609673Y-64637219D01*
X142609673Y-64637219D02*
X142609673Y-63637219D01*
X143276340Y-63637219D02*
X143847768Y-63637219D01*
X143562054Y-64637219D02*
X143562054Y-63637219D01*
X144181102Y-64113409D02*
X144514435Y-64113409D01*
X144657292Y-64637219D02*
X144181102Y-64637219D01*
X144181102Y-64637219D02*
X144181102Y-63637219D01*
X144181102Y-63637219D02*
X144657292Y-63637219D01*
D11*
%TO.C,PIR_Sensor1*%
X145990000Y-105350000D02*
X145990000Y-108010000D01*
X151130000Y-105350000D02*
X145990000Y-105350000D01*
X151130000Y-105350000D02*
X151130000Y-108010000D01*
X151130000Y-108010000D02*
X145990000Y-108010000D01*
X152400000Y-105350000D02*
X153730000Y-105350000D01*
X153730000Y-105350000D02*
X153730000Y-106680000D01*
%TO.C,GY-87_Sensor1*%
X133290000Y-87630000D02*
X133290000Y-69790000D01*
X135950000Y-69790000D02*
X133290000Y-69790000D01*
X135950000Y-87630000D02*
X133290000Y-87630000D01*
X135950000Y-87630000D02*
X135950000Y-69790000D01*
X135950000Y-88900000D02*
X135950000Y-90230000D01*
X135950000Y-90230000D02*
X134620000Y-90230000D01*
%TO.C,LTE_Modem1*%
X138370000Y-59630000D02*
X138370000Y-62290000D01*
X146050000Y-59630000D02*
X138370000Y-59630000D01*
X146050000Y-59630000D02*
X146050000Y-62290000D01*
X146050000Y-62290000D02*
X138370000Y-62290000D01*
X147320000Y-59630000D02*
X148650000Y-59630000D01*
X148650000Y-59630000D02*
X148650000Y-60960000D01*
%TO.C,Switch_Module1*%
X138370000Y-112970000D02*
X138370000Y-115630000D01*
X140970000Y-112970000D02*
X138370000Y-112970000D01*
X140970000Y-112970000D02*
X140970000Y-115630000D01*
X140970000Y-115630000D02*
X138370000Y-115630000D01*
X142240000Y-112970000D02*
X143570000Y-112970000D01*
X143570000Y-112970000D02*
X143570000Y-114300000D01*
D12*
%TO.C,G\u002A\u002A\u002A*%
G36*
X146126587Y-96256794D02*
G01*
X146155011Y-96258855D01*
X146173306Y-96264357D01*
X146187095Y-96274727D01*
X146197332Y-96285945D01*
X146217504Y-96320327D01*
X146223182Y-96361450D01*
X146214200Y-96405839D01*
X146186678Y-96442201D01*
X146139754Y-96471502D01*
X146116128Y-96481180D01*
X146079693Y-96490371D01*
X146030143Y-96497412D01*
X145974158Y-96501951D01*
X145918417Y-96503633D01*
X145869602Y-96502105D01*
X145834390Y-96497014D01*
X145831660Y-96496230D01*
X145795770Y-96478986D01*
X145778333Y-96456100D01*
X145778695Y-96434994D01*
X145792421Y-96411872D01*
X145818959Y-96381363D01*
X145853394Y-96348038D01*
X145890813Y-96316465D01*
X145926302Y-96291214D01*
X145943915Y-96281339D01*
X145978329Y-96267816D01*
X146016464Y-96260160D01*
X146066016Y-96257003D01*
X146082412Y-96256745D01*
X146126587Y-96256794D01*
G37*
G36*
X144523274Y-95194706D02*
G01*
X144602143Y-95197547D01*
X144662093Y-95202402D01*
X144825191Y-95228975D01*
X144974581Y-95268940D01*
X145109447Y-95321872D01*
X145228972Y-95387347D01*
X145332340Y-95464939D01*
X145418733Y-95554222D01*
X145467469Y-95621555D01*
X145511006Y-95696696D01*
X145537978Y-95760026D01*
X145548650Y-95812921D01*
X145543284Y-95856760D01*
X145522144Y-95892921D01*
X145519815Y-95895485D01*
X145495116Y-95915660D01*
X145462064Y-95930604D01*
X145417882Y-95940827D01*
X145359792Y-95946840D01*
X145285016Y-95949154D01*
X145228990Y-95948954D01*
X145168188Y-95948548D01*
X145123191Y-95949580D01*
X145088438Y-95952699D01*
X145058368Y-95958552D01*
X145027419Y-95967787D01*
X145007400Y-95974760D01*
X144926456Y-96007951D01*
X144858384Y-96046409D01*
X144794674Y-96095365D01*
X144760809Y-96126358D01*
X144694884Y-96201970D01*
X144646967Y-96284105D01*
X144617594Y-96370392D01*
X144607298Y-96458457D01*
X144616612Y-96545930D01*
X144646071Y-96630439D01*
X144646972Y-96632292D01*
X144673991Y-96676140D01*
X144713920Y-96726752D01*
X144762251Y-96779617D01*
X144814477Y-96830226D01*
X144866090Y-96874070D01*
X144912585Y-96906638D01*
X144931195Y-96916678D01*
X144986893Y-96949742D01*
X145025085Y-96987409D01*
X145044859Y-97027798D01*
X145045302Y-97069026D01*
X145025503Y-97109209D01*
X145024882Y-97110004D01*
X144993668Y-97140600D01*
X144946287Y-97175610D01*
X144886895Y-97212805D01*
X144819647Y-97249955D01*
X144748699Y-97284831D01*
X144678206Y-97315204D01*
X144612324Y-97338844D01*
X144582231Y-97347489D01*
X144520680Y-97358742D01*
X144446259Y-97365329D01*
X144366007Y-97367245D01*
X144286964Y-97364483D01*
X144216171Y-97357038D01*
X144170656Y-97347828D01*
X144092162Y-97320832D01*
X144008313Y-97282161D01*
X143927805Y-97236257D01*
X143863355Y-97190813D01*
X143778238Y-97110944D01*
X143701020Y-97015443D01*
X143635134Y-96909591D01*
X143584014Y-96798664D01*
X143559672Y-96723902D01*
X143546099Y-96654728D01*
X143538143Y-96574066D01*
X143535908Y-96489251D01*
X143539496Y-96407615D01*
X143549010Y-96336492D01*
X143553938Y-96314747D01*
X143591568Y-96206639D01*
X143646743Y-96098944D01*
X143716145Y-95996759D01*
X143796457Y-95905182D01*
X143854935Y-95852121D01*
X143885736Y-95826157D01*
X143908323Y-95805660D01*
X143919057Y-95793991D01*
X143919365Y-95792637D01*
X143906860Y-95792350D01*
X143877792Y-95796597D01*
X143836278Y-95804491D01*
X143786436Y-95815146D01*
X143732385Y-95827673D01*
X143678242Y-95841186D01*
X143628125Y-95854797D01*
X143620109Y-95857113D01*
X143421681Y-95922895D01*
X143227891Y-96003446D01*
X143034451Y-96100692D01*
X142882483Y-96188501D01*
X142822341Y-96225132D01*
X142759488Y-96263424D01*
X142700176Y-96299567D01*
X142650655Y-96329753D01*
X142636608Y-96338318D01*
X142593125Y-96364070D01*
X142536599Y-96396434D01*
X142472921Y-96432093D01*
X142407983Y-96467733D01*
X142374697Y-96485680D01*
X142304044Y-96523716D01*
X142249370Y-96553795D01*
X142207656Y-96577766D01*
X142175882Y-96597479D01*
X142151029Y-96614785D01*
X142130077Y-96631534D01*
X142115459Y-96644520D01*
X142096888Y-96665332D01*
X142087976Y-96686670D01*
X142089842Y-96710348D01*
X142103603Y-96738179D01*
X142130377Y-96771977D01*
X142171283Y-96813555D01*
X142227437Y-96864728D01*
X142278485Y-96909000D01*
X142334985Y-96958823D01*
X142399427Y-97017999D01*
X142465145Y-97080272D01*
X142525473Y-97139385D01*
X142545741Y-97159863D01*
X142684209Y-97297684D01*
X142816539Y-97422143D01*
X142941445Y-97532116D01*
X143057643Y-97626478D01*
X143163849Y-97704104D01*
X143179573Y-97714725D01*
X143312241Y-97793564D01*
X143457456Y-97862443D01*
X143611297Y-97920322D01*
X143769844Y-97966162D01*
X143929175Y-97998924D01*
X144085370Y-98017568D01*
X144234508Y-98021057D01*
X144315572Y-98015793D01*
X144419088Y-98003373D01*
X144509086Y-97987822D01*
X144593384Y-97967373D01*
X144679801Y-97940260D01*
X144730888Y-97921933D01*
X144809814Y-97894264D01*
X144871746Y-97876103D01*
X144916323Y-97867433D01*
X144943181Y-97868241D01*
X144951955Y-97878509D01*
X144942284Y-97898224D01*
X144913804Y-97927369D01*
X144911282Y-97929599D01*
X144823286Y-97996469D01*
X144722136Y-98055916D01*
X144615302Y-98104098D01*
X144510251Y-98137170D01*
X144505884Y-98138195D01*
X144461672Y-98145460D01*
X144400475Y-98151362D01*
X144326651Y-98155836D01*
X144244556Y-98158816D01*
X144158547Y-98160235D01*
X144072980Y-98160029D01*
X143992213Y-98158131D01*
X143920601Y-98154475D01*
X143862503Y-98148997D01*
X143855250Y-98148018D01*
X143730357Y-98126855D01*
X143609071Y-98098887D01*
X143489671Y-98063208D01*
X143370434Y-98018910D01*
X143249638Y-97965086D01*
X143125562Y-97900828D01*
X142996484Y-97825229D01*
X142860681Y-97737382D01*
X142716433Y-97636379D01*
X142562016Y-97521313D01*
X142395710Y-97391277D01*
X142350724Y-97355237D01*
X142268456Y-97289615D01*
X142199184Y-97235851D01*
X142139767Y-97191778D01*
X142087064Y-97155229D01*
X142037933Y-97124037D01*
X141989235Y-97096034D01*
X141937827Y-97069052D01*
X141931052Y-97065642D01*
X141877036Y-97040244D01*
X141806127Y-97009497D01*
X141721739Y-96974751D01*
X141627283Y-96937357D01*
X141526171Y-96898664D01*
X141421815Y-96860023D01*
X141317628Y-96822782D01*
X141313691Y-96821403D01*
X141255563Y-96800363D01*
X141205431Y-96780881D01*
X141166476Y-96764299D01*
X141141878Y-96751962D01*
X141134630Y-96745748D01*
X141139140Y-96734239D01*
X141153739Y-96719608D01*
X141180030Y-96700884D01*
X141219615Y-96677094D01*
X141274096Y-96647267D01*
X141345075Y-96610431D01*
X141420511Y-96572419D01*
X141538644Y-96512974D01*
X141645193Y-96458175D01*
X141743103Y-96406264D01*
X141835319Y-96355480D01*
X141924785Y-96304063D01*
X142014447Y-96250254D01*
X142107249Y-96192293D01*
X142206136Y-96128419D01*
X142314053Y-96056874D01*
X142433945Y-95975896D01*
X142540395Y-95903185D01*
X142674278Y-95812035D01*
X142793302Y-95732486D01*
X142899675Y-95663256D01*
X142995602Y-95603063D01*
X143083290Y-95550628D01*
X143164943Y-95504667D01*
X143242769Y-95463899D01*
X143318973Y-95427043D01*
X143395762Y-95392818D01*
X143475341Y-95359941D01*
X143476074Y-95359649D01*
X143575595Y-95323674D01*
X143688730Y-95289077D01*
X143807726Y-95257940D01*
X143924830Y-95232344D01*
X143999613Y-95219136D01*
X144066858Y-95210784D01*
X144149059Y-95203969D01*
X144241008Y-95198823D01*
X144337499Y-95195475D01*
X144433324Y-95194059D01*
X144523274Y-95194706D01*
G37*
G36*
X146093186Y-95184896D02*
G01*
X146133357Y-95199476D01*
X146185364Y-95226807D01*
X146208355Y-95240274D01*
X146297560Y-95300679D01*
X146386756Y-95375868D01*
X146477949Y-95467707D01*
X146573144Y-95578062D01*
X146578695Y-95584903D01*
X146671738Y-95705884D01*
X146756348Y-95829204D01*
X146836130Y-95960550D01*
X146914689Y-96105612D01*
X146938412Y-96152366D01*
X146982593Y-96241532D01*
X147018532Y-96316776D01*
X147048138Y-96382998D01*
X147073317Y-96445095D01*
X147095976Y-96507966D01*
X147118023Y-96576508D01*
X147141363Y-96655620D01*
X147159789Y-96720976D01*
X147195128Y-96857570D01*
X147220647Y-96980288D01*
X147236918Y-97093941D01*
X147244516Y-97203338D01*
X147244013Y-97313287D01*
X147239474Y-97389116D01*
X147228636Y-97519954D01*
X147218060Y-97632920D01*
X147207101Y-97731503D01*
X147195113Y-97819191D01*
X147181447Y-97899473D01*
X147165459Y-97975838D01*
X147146502Y-98051775D01*
X147123930Y-98130773D01*
X147097096Y-98216321D01*
X147072375Y-98291080D01*
X147048361Y-98362994D01*
X147026951Y-98427962D01*
X147008995Y-98483327D01*
X146995348Y-98526432D01*
X146986860Y-98554621D01*
X146984384Y-98565240D01*
X146984390Y-98565246D01*
X146994848Y-98562209D01*
X147021752Y-98551714D01*
X147062057Y-98535085D01*
X147112719Y-98513652D01*
X147170690Y-98488739D01*
X147232928Y-98461674D01*
X147296385Y-98433784D01*
X147358016Y-98406395D01*
X147414777Y-98380835D01*
X147463622Y-98358429D01*
X147501505Y-98340504D01*
X147511355Y-98335663D01*
X147541560Y-98319851D01*
X147587276Y-98294928D01*
X147645548Y-98262553D01*
X147713417Y-98224385D01*
X147787927Y-98182084D01*
X147866120Y-98137309D01*
X147911577Y-98111101D01*
X147987546Y-98067578D01*
X148058966Y-98027403D01*
X148123406Y-97991889D01*
X148178431Y-97962347D01*
X148221609Y-97940090D01*
X148250506Y-97926430D01*
X148260985Y-97922676D01*
X148313315Y-97922757D01*
X148359843Y-97941280D01*
X148396382Y-97975370D01*
X148418748Y-98022149D01*
X148421143Y-98032731D01*
X148421068Y-98060301D01*
X148414460Y-98106253D01*
X148401747Y-98168751D01*
X148383354Y-98245962D01*
X148359709Y-98336050D01*
X148331237Y-98437181D01*
X148311621Y-98503714D01*
X148295813Y-98550782D01*
X148272324Y-98613194D01*
X148242809Y-98687061D01*
X148208927Y-98768495D01*
X148172335Y-98853605D01*
X148134691Y-98938505D01*
X148097651Y-99019305D01*
X148062874Y-99092116D01*
X148048637Y-99120775D01*
X148025449Y-99163623D01*
X147993644Y-99218010D01*
X147955803Y-99279931D01*
X147914507Y-99345380D01*
X147872337Y-99410355D01*
X147831874Y-99470849D01*
X147795698Y-99522859D01*
X147766391Y-99562380D01*
X147755149Y-99576171D01*
X147724482Y-99609308D01*
X147681295Y-99652607D01*
X147629454Y-99702499D01*
X147572827Y-99755416D01*
X147515281Y-99807788D01*
X147460683Y-99856045D01*
X147412899Y-99896620D01*
X147377727Y-99924510D01*
X147339678Y-99951021D01*
X147287779Y-99984558D01*
X147226729Y-100022338D01*
X147161227Y-100061578D01*
X147095971Y-100099494D01*
X147035659Y-100133304D01*
X146984992Y-100160224D01*
X146956198Y-100174195D01*
X146853883Y-100215030D01*
X146734353Y-100253523D01*
X146601738Y-100288511D01*
X146460171Y-100318831D01*
X146408068Y-100328336D01*
X146308383Y-100345397D01*
X146224716Y-100358851D01*
X146152101Y-100369206D01*
X146085577Y-100376972D01*
X146020178Y-100382657D01*
X145950942Y-100386770D01*
X145872906Y-100389819D01*
X145784882Y-100392225D01*
X145697984Y-100393888D01*
X145627122Y-100394099D01*
X145566990Y-100392650D01*
X145512278Y-100389330D01*
X145457679Y-100383932D01*
X145405379Y-100377277D01*
X145244107Y-100352650D01*
X145102571Y-100325414D01*
X144979240Y-100295138D01*
X144872581Y-100261386D01*
X144781060Y-100223728D01*
X144703146Y-100181728D01*
X144694843Y-100176508D01*
X144649250Y-100145265D01*
X144596892Y-100106047D01*
X144542150Y-100062484D01*
X144489402Y-100018210D01*
X144443028Y-99976855D01*
X144407406Y-99942052D01*
X144393897Y-99926913D01*
X144365275Y-99889530D01*
X144329985Y-99839838D01*
X144290975Y-99782373D01*
X144251193Y-99721673D01*
X144213587Y-99662276D01*
X144181103Y-99608718D01*
X144156691Y-99565537D01*
X144148095Y-99548544D01*
X144113549Y-99455560D01*
X144090136Y-99349950D01*
X144078532Y-99237738D01*
X144078915Y-99188724D01*
X144291779Y-99188724D01*
X144296775Y-99247961D01*
X144306818Y-99312879D01*
X144320683Y-99376306D01*
X144337146Y-99431071D01*
X144346084Y-99453211D01*
X144362262Y-99483712D01*
X144388098Y-99526961D01*
X144420612Y-99578463D01*
X144456824Y-99633722D01*
X144493752Y-99688241D01*
X144528416Y-99737525D01*
X144557836Y-99777078D01*
X144573725Y-99796581D01*
X144598013Y-99820814D01*
X144635027Y-99853550D01*
X144680009Y-99890984D01*
X144728200Y-99929312D01*
X144774843Y-99964730D01*
X144815180Y-99993436D01*
X144838796Y-100008483D01*
X144873305Y-100025096D01*
X144923238Y-100044738D01*
X144983196Y-100065599D01*
X145047777Y-100085871D01*
X145111582Y-100103744D01*
X145154158Y-100114144D01*
X145190690Y-100121364D01*
X145243081Y-100130409D01*
X145305972Y-100140481D01*
X145374002Y-100150778D01*
X145441812Y-100160501D01*
X145504043Y-100168850D01*
X145555334Y-100175026D01*
X145576422Y-100177160D01*
X145606304Y-100179983D01*
X145627121Y-100182175D01*
X145629874Y-100182525D01*
X145643395Y-100182520D01*
X145674861Y-100181627D01*
X145720862Y-100179970D01*
X145777984Y-100177673D01*
X145842818Y-100174861D01*
X145854369Y-100174340D01*
X146040954Y-100161078D01*
X146225921Y-100138674D01*
X146405050Y-100107908D01*
X146574121Y-100069562D01*
X146728915Y-100024416D01*
X146800285Y-99999294D01*
X146851429Y-99977388D01*
X146915084Y-99946025D01*
X146986262Y-99908030D01*
X147059973Y-99866229D01*
X147131229Y-99823446D01*
X147195039Y-99782506D01*
X147244099Y-99747984D01*
X147289526Y-99712196D01*
X147342107Y-99668139D01*
X147398374Y-99618991D01*
X147454859Y-99567933D01*
X147508094Y-99518143D01*
X147554612Y-99472800D01*
X147590944Y-99435084D01*
X147611147Y-99411502D01*
X147642152Y-99368709D01*
X147680045Y-99312843D01*
X147721633Y-99248973D01*
X147763723Y-99182170D01*
X147803122Y-99117504D01*
X147836637Y-99060043D01*
X147861074Y-99014859D01*
X147861490Y-99014032D01*
X147881296Y-98973415D01*
X147906852Y-98919294D01*
X147936155Y-98856091D01*
X147967199Y-98788228D01*
X147997979Y-98720124D01*
X148026490Y-98656200D01*
X148050727Y-98600878D01*
X148068685Y-98558579D01*
X148073940Y-98545588D01*
X148082401Y-98521341D01*
X148094368Y-98483453D01*
X148108555Y-98436418D01*
X148123675Y-98384725D01*
X148138443Y-98332869D01*
X148151571Y-98285339D01*
X148161774Y-98246628D01*
X148167766Y-98221228D01*
X148168805Y-98214315D01*
X148159997Y-98217845D01*
X148135254Y-98230774D01*
X148097096Y-98251708D01*
X148048041Y-98279251D01*
X147990611Y-98312007D01*
X147946982Y-98337171D01*
X147850626Y-98392549D01*
X147765657Y-98440224D01*
X147687466Y-98482533D01*
X147611444Y-98521814D01*
X147532980Y-98560403D01*
X147447466Y-98600638D01*
X147350292Y-98644857D01*
X147265480Y-98682709D01*
X147096049Y-98756784D01*
X146942346Y-98821520D01*
X146801429Y-98877997D01*
X146670356Y-98927295D01*
X146546185Y-98970495D01*
X146425974Y-99008677D01*
X146306782Y-99042921D01*
X146228527Y-99063564D01*
X146124897Y-99089632D01*
X146037504Y-99110510D01*
X145962016Y-99126853D01*
X145894104Y-99139314D01*
X145829437Y-99148545D01*
X145763684Y-99155202D01*
X145692516Y-99159936D01*
X145611602Y-99163401D01*
X145555042Y-99165187D01*
X145463751Y-99167350D01*
X145389834Y-99167559D01*
X145329324Y-99165171D01*
X145278254Y-99159546D01*
X145232657Y-99150043D01*
X145188567Y-99136018D01*
X145142018Y-99116832D01*
X145089041Y-99091843D01*
X145082885Y-99088827D01*
X145027783Y-99059306D01*
X144982095Y-99028159D01*
X144941504Y-98991292D01*
X144901698Y-98944607D01*
X144858362Y-98884011D01*
X144843290Y-98861387D01*
X144803400Y-98791172D01*
X144780710Y-98728435D01*
X144779458Y-98722786D01*
X144774348Y-98684829D01*
X144771545Y-98635270D01*
X144770897Y-98579337D01*
X144772253Y-98522259D01*
X144775461Y-98469266D01*
X144780372Y-98425585D01*
X144786832Y-98396446D01*
X144789047Y-98391326D01*
X144795605Y-98373631D01*
X144792675Y-98367273D01*
X144780514Y-98374369D01*
X144756008Y-98393905D01*
X144721979Y-98423249D01*
X144681248Y-98459770D01*
X144636637Y-98500836D01*
X144590967Y-98543817D01*
X144547060Y-98586081D01*
X144507736Y-98624997D01*
X144475818Y-98657935D01*
X144454127Y-98682262D01*
X144451833Y-98685129D01*
X144415709Y-98741469D01*
X144380995Y-98814459D01*
X144349336Y-98899369D01*
X144322372Y-98991469D01*
X144301746Y-99086031D01*
X144293051Y-99142339D01*
X144291779Y-99188724D01*
X144078915Y-99188724D01*
X144079413Y-99124945D01*
X144090316Y-99034047D01*
X144120425Y-98899085D01*
X144160177Y-98774700D01*
X144208391Y-98663878D01*
X144263887Y-98569606D01*
X144285435Y-98540276D01*
X144313440Y-98508019D01*
X144354219Y-98465623D01*
X144404047Y-98416548D01*
X144459198Y-98364253D01*
X144515948Y-98312197D01*
X144570570Y-98263839D01*
X144619339Y-98222639D01*
X144658530Y-98192055D01*
X144666676Y-98186279D01*
X144696116Y-98168335D01*
X144741487Y-98143557D01*
X144799146Y-98113715D01*
X144865450Y-98080575D01*
X144936755Y-98045904D01*
X145009418Y-98011471D01*
X145079795Y-97979042D01*
X145144244Y-97950384D01*
X145199122Y-97927266D01*
X145207609Y-97923866D01*
X145276846Y-97894627D01*
X145358149Y-97857450D01*
X145445262Y-97815415D01*
X145531928Y-97771604D01*
X145611893Y-97729099D01*
X145671484Y-97695378D01*
X145742955Y-97648008D01*
X145810951Y-97593174D01*
X145871069Y-97535025D01*
X145918907Y-97477708D01*
X145943223Y-97439379D01*
X145968574Y-97386076D01*
X145990931Y-97328541D01*
X146008187Y-97273182D01*
X146018235Y-97226406D01*
X146019929Y-97206151D01*
X146026719Y-97170685D01*
X146043932Y-97142436D01*
X146067306Y-97123847D01*
X146092579Y-97117363D01*
X146115491Y-97125427D01*
X146129064Y-97143569D01*
X146136064Y-97178963D01*
X146133367Y-97228749D01*
X146122136Y-97288903D01*
X146103535Y-97355400D01*
X146078728Y-97424217D01*
X146048879Y-97491329D01*
X146015152Y-97552712D01*
X146007029Y-97565505D01*
X145965957Y-97623175D01*
X145919707Y-97677338D01*
X145865547Y-97730425D01*
X145800749Y-97784867D01*
X145722583Y-97843098D01*
X145628321Y-97907549D01*
X145608493Y-97920615D01*
X145521545Y-97978351D01*
X145448575Y-98028763D01*
X145385130Y-98075368D01*
X145326762Y-98121685D01*
X145269020Y-98171232D01*
X145207453Y-98227526D01*
X145144856Y-98287096D01*
X145086994Y-98345024D01*
X145044246Y-98393819D01*
X145014557Y-98437086D01*
X144995870Y-98478429D01*
X144986130Y-98521455D01*
X144983279Y-98569767D01*
X144983278Y-98570387D01*
X144985697Y-98628296D01*
X144994797Y-98675203D01*
X145013223Y-98718667D01*
X145043615Y-98766248D01*
X145059098Y-98787308D01*
X145096108Y-98832281D01*
X145130862Y-98863936D01*
X145170134Y-98888332D01*
X145174609Y-98890625D01*
X145222763Y-98913703D01*
X145265886Y-98930752D01*
X145308432Y-98942474D01*
X145354850Y-98949571D01*
X145409594Y-98952746D01*
X145477114Y-98952700D01*
X145553793Y-98950438D01*
X145624594Y-98947107D01*
X145695995Y-98942484D01*
X145762001Y-98937044D01*
X145816615Y-98931263D01*
X145843678Y-98927463D01*
X145916995Y-98913576D01*
X146005370Y-98893919D01*
X146103713Y-98869864D01*
X146206928Y-98842780D01*
X146309923Y-98814040D01*
X146407605Y-98785013D01*
X146494880Y-98757071D01*
X146554579Y-98736126D01*
X146609886Y-98715576D01*
X146657625Y-98697734D01*
X146694433Y-98683864D01*
X146716951Y-98675230D01*
X146722427Y-98672968D01*
X146726589Y-98661151D01*
X146734111Y-98631541D01*
X146744328Y-98587341D01*
X146756581Y-98531758D01*
X146770206Y-98467996D01*
X146784542Y-98399260D01*
X146798927Y-98328755D01*
X146812699Y-98259687D01*
X146825197Y-98195260D01*
X146835758Y-98138680D01*
X146843720Y-98093151D01*
X146848094Y-98064454D01*
X146857718Y-97936722D01*
X146851273Y-97814409D01*
X146828270Y-97688461D01*
X146827570Y-97685565D01*
X146798580Y-97599799D01*
X146753305Y-97508805D01*
X146694711Y-97416661D01*
X146625763Y-97327447D01*
X146549427Y-97245239D01*
X146468666Y-97174116D01*
X146440262Y-97152852D01*
X146367799Y-97107117D01*
X146284171Y-97063899D01*
X146199452Y-97028189D01*
X146164385Y-97016130D01*
X146115167Y-97003582D01*
X146049850Y-96991260D01*
X145973712Y-96979816D01*
X145892033Y-96969905D01*
X145810090Y-96962180D01*
X145733160Y-96957296D01*
X145677980Y-96955870D01*
X145617783Y-96954835D01*
X145557046Y-96952343D01*
X145503475Y-96948786D01*
X145469520Y-96945245D01*
X145424988Y-96939523D01*
X145368474Y-96932769D01*
X145309273Y-96926077D01*
X145282441Y-96923189D01*
X145190068Y-96908313D01*
X145116208Y-96884873D01*
X145059567Y-96852358D01*
X145028727Y-96823047D01*
X145007664Y-96793207D01*
X144984159Y-96752400D01*
X144960880Y-96706289D01*
X144940497Y-96660539D01*
X144925676Y-96620813D01*
X144924092Y-96614074D01*
X145131410Y-96614074D01*
X145155090Y-96656207D01*
X145170587Y-96680029D01*
X145188742Y-96697397D01*
X145213583Y-96709954D01*
X145249138Y-96719346D01*
X145299434Y-96727217D01*
X145341237Y-96732218D01*
X145397696Y-96738659D01*
X145456353Y-96745504D01*
X145507383Y-96751604D01*
X145522971Y-96753516D01*
X145565199Y-96757383D01*
X145620749Y-96760567D01*
X145681568Y-96762678D01*
X145726086Y-96763326D01*
X145794105Y-96765592D01*
X145872979Y-96771416D01*
X145956920Y-96780078D01*
X146040142Y-96790864D01*
X146116858Y-96803055D01*
X146181283Y-96815936D01*
X146210285Y-96823311D01*
X146288518Y-96850078D01*
X146373944Y-96886730D01*
X146457674Y-96929065D01*
X146530817Y-96972882D01*
X146540070Y-96979146D01*
X146603641Y-97027674D01*
X146672308Y-97088023D01*
X146739537Y-97154071D01*
X146798797Y-97219696D01*
X146805968Y-97228358D01*
X146839942Y-97273977D01*
X146876893Y-97330310D01*
X146913862Y-97392120D01*
X146947891Y-97454174D01*
X146976022Y-97511237D01*
X146995295Y-97558073D01*
X146999130Y-97570123D01*
X147019604Y-97641959D01*
X147032263Y-97520883D01*
X147037616Y-97457585D01*
X147041927Y-97383720D01*
X147044643Y-97310092D01*
X147045296Y-97266178D01*
X147044568Y-97205396D01*
X147042308Y-97143500D01*
X147038884Y-97088440D01*
X147035427Y-97053644D01*
X147027805Y-97009644D01*
X147014650Y-96949577D01*
X146997071Y-96877699D01*
X146976178Y-96798265D01*
X146953081Y-96715531D01*
X146928889Y-96633752D01*
X146911034Y-96576658D01*
X146892751Y-96526960D01*
X146865656Y-96462802D01*
X146831736Y-96388180D01*
X146792977Y-96307085D01*
X146751366Y-96223511D01*
X146708890Y-96141453D01*
X146667537Y-96064902D01*
X146629292Y-95997854D01*
X146597216Y-95945934D01*
X146560614Y-95892110D01*
X146518930Y-95834248D01*
X146474074Y-95774649D01*
X146427955Y-95715617D01*
X146382482Y-95659454D01*
X146339562Y-95608462D01*
X146301106Y-95564942D01*
X146269021Y-95531198D01*
X146245216Y-95509531D01*
X146231601Y-95502243D01*
X146229969Y-95502984D01*
X146229100Y-95515189D01*
X146231181Y-95542204D01*
X146234887Y-95571776D01*
X146239127Y-95608324D01*
X146243698Y-95659247D01*
X146248025Y-95717557D01*
X146251284Y-95771440D01*
X146253829Y-95849421D01*
X146251592Y-95910317D01*
X146243728Y-95958059D01*
X146229395Y-95996577D01*
X146207750Y-96029801D01*
X146191993Y-96047691D01*
X146168911Y-96068258D01*
X146141598Y-96084309D01*
X146106708Y-96096732D01*
X146060894Y-96106416D01*
X146000809Y-96114248D01*
X145923106Y-96121116D01*
X145912060Y-96121946D01*
X145847387Y-96128274D01*
X145797588Y-96138323D01*
X145758478Y-96155012D01*
X145725871Y-96181256D01*
X145695580Y-96219974D01*
X145663421Y-96274081D01*
X145645320Y-96307842D01*
X145615293Y-96363988D01*
X145591183Y-96405299D01*
X145569359Y-96436072D01*
X145546189Y-96460602D01*
X145518041Y-96483184D01*
X145481281Y-96508114D01*
X145469520Y-96515733D01*
X145406506Y-96554841D01*
X145355334Y-96582376D01*
X145311182Y-96600159D01*
X145269227Y-96610014D01*
X145224648Y-96613763D01*
X145209598Y-96613970D01*
X145131410Y-96614074D01*
X144924092Y-96614074D01*
X144919087Y-96592777D01*
X144918973Y-96590056D01*
X144929329Y-96542263D01*
X144960580Y-96493426D01*
X144984875Y-96467739D01*
X145018495Y-96440110D01*
X145053441Y-96422863D01*
X145095682Y-96414226D01*
X145151190Y-96412427D01*
X145169640Y-96412898D01*
X145255968Y-96415822D01*
X145336018Y-96364949D01*
X145371948Y-96341489D01*
X145397632Y-96321741D01*
X145417503Y-96300572D01*
X145435993Y-96272848D01*
X145457533Y-96233433D01*
X145469520Y-96210284D01*
X145527096Y-96114354D01*
X145590595Y-96038782D01*
X145660239Y-95983324D01*
X145687817Y-95967747D01*
X145715500Y-95955310D01*
X145745632Y-95945773D01*
X145783016Y-95938143D01*
X145832451Y-95931426D01*
X145894030Y-95925073D01*
X145965144Y-95917366D01*
X146015321Y-95909683D01*
X146045005Y-95901942D01*
X146053913Y-95896324D01*
X146058721Y-95876538D01*
X146060010Y-95839604D01*
X146058206Y-95789387D01*
X146053738Y-95729751D01*
X146047034Y-95664561D01*
X146038520Y-95597681D01*
X146028625Y-95532977D01*
X146017777Y-95474313D01*
X146006402Y-95425554D01*
X145999184Y-95401731D01*
X145980905Y-95334667D01*
X145977674Y-95280905D01*
X145989590Y-95238460D01*
X146008555Y-95212831D01*
X146034298Y-95192056D01*
X146061337Y-95182583D01*
X146093186Y-95184896D01*
G37*
D11*
%TO.C,BME280_Sensor1*%
X133290000Y-102870000D02*
X133290000Y-95190000D01*
X135950000Y-95190000D02*
X133290000Y-95190000D01*
X135950000Y-102870000D02*
X133290000Y-102870000D01*
X135950000Y-102870000D02*
X135950000Y-95190000D01*
X135950000Y-104140000D02*
X135950000Y-105470000D01*
X135950000Y-105470000D02*
X134620000Y-105470000D01*
%TO.C,RaspberryPi_USB1*%
X151070000Y-59620000D02*
X151070000Y-62280000D01*
X153670000Y-59620000D02*
X151070000Y-59620000D01*
X153670000Y-59620000D02*
X153670000Y-62280000D01*
X153670000Y-62280000D02*
X151070000Y-62280000D01*
X154940000Y-59620000D02*
X156270000Y-59620000D01*
X156270000Y-59620000D02*
X156270000Y-60950000D01*
%TO.C,RaspberryPi_GPIOs1*%
X158690000Y-113090000D02*
X158690000Y-62170000D01*
X161290000Y-110490000D02*
X161290000Y-113090000D01*
X161290000Y-113090000D02*
X158690000Y-113090000D01*
X163890000Y-62170000D02*
X158690000Y-62170000D01*
X163890000Y-110490000D02*
X161290000Y-110490000D01*
X163890000Y-110490000D02*
X163890000Y-62170000D01*
X163890000Y-111760000D02*
X163890000Y-113090000D01*
X163890000Y-113090000D02*
X162560000Y-113090000D01*
%TO.C,Powerbank_Power1*%
X148530000Y-112970000D02*
X148530000Y-115630000D01*
X151130000Y-112970000D02*
X148530000Y-112970000D01*
X151130000Y-112970000D02*
X151130000Y-115630000D01*
X151130000Y-115630000D02*
X148530000Y-115630000D01*
X152400000Y-112970000D02*
X153730000Y-112970000D01*
X153730000Y-112970000D02*
X153730000Y-114300000D01*
D13*
%TO.C,REF\u002A\u002A*%
X154199460Y-99248030D02*
X154242711Y-99261245D01*
X154270558Y-99277941D01*
X154279629Y-99291145D01*
X154277132Y-99306797D01*
X154260931Y-99331385D01*
X154247232Y-99348800D01*
X154218992Y-99380283D01*
X154197775Y-99393529D01*
X154179688Y-99392664D01*
X154126035Y-99379010D01*
X154086630Y-99379630D01*
X154054632Y-99395104D01*
X154043890Y-99404161D01*
X154009505Y-99436027D01*
X154009505Y-99852179D01*
X153871188Y-99852179D01*
X153871188Y-99248614D01*
X153940347Y-99248614D01*
X153981869Y-99250256D01*
X154003291Y-99256087D01*
X154009502Y-99267461D01*
X154009505Y-99267798D01*
X154012439Y-99279713D01*
X154025704Y-99278159D01*
X154044084Y-99269563D01*
X154082046Y-99253568D01*
X154112872Y-99243945D01*
X154152536Y-99241478D01*
X154199460Y-99248030D01*
G36*
X154199460Y-99248030D02*
G01*
X154242711Y-99261245D01*
X154270558Y-99277941D01*
X154279629Y-99291145D01*
X154277132Y-99306797D01*
X154260931Y-99331385D01*
X154247232Y-99348800D01*
X154218992Y-99380283D01*
X154197775Y-99393529D01*
X154179688Y-99392664D01*
X154126035Y-99379010D01*
X154086630Y-99379630D01*
X154054632Y-99395104D01*
X154043890Y-99404161D01*
X154009505Y-99436027D01*
X154009505Y-99852179D01*
X153871188Y-99852179D01*
X153871188Y-99248614D01*
X153940347Y-99248614D01*
X153981869Y-99250256D01*
X154003291Y-99256087D01*
X154009502Y-99267461D01*
X154009505Y-99267798D01*
X154012439Y-99279713D01*
X154025704Y-99278159D01*
X154044084Y-99269563D01*
X154082046Y-99253568D01*
X154112872Y-99243945D01*
X154152536Y-99241478D01*
X154199460Y-99248030D01*
G37*
X154035255Y-100191486D02*
X154083595Y-100201015D01*
X154111114Y-100215125D01*
X154140064Y-100238568D01*
X154098876Y-100290571D01*
X154073482Y-100322064D01*
X154056238Y-100337428D01*
X154039102Y-100339776D01*
X154014027Y-100332217D01*
X154002257Y-100327941D01*
X153954270Y-100321631D01*
X153910324Y-100335156D01*
X153878060Y-100365710D01*
X153872819Y-100375452D01*
X153867112Y-100401258D01*
X153862706Y-100448817D01*
X153859811Y-100514758D01*
X153858631Y-100595710D01*
X153858614Y-100607226D01*
X153858614Y-100807822D01*
X153720297Y-100807822D01*
X153720297Y-100191683D01*
X153789456Y-100191683D01*
X153829333Y-100192725D01*
X153850107Y-100197358D01*
X153857789Y-100207849D01*
X153858614Y-100217745D01*
X153858614Y-100243806D01*
X153891745Y-100217745D01*
X153929735Y-100199965D01*
X153980770Y-100191174D01*
X154035255Y-100191486D01*
G36*
X154035255Y-100191486D02*
G01*
X154083595Y-100201015D01*
X154111114Y-100215125D01*
X154140064Y-100238568D01*
X154098876Y-100290571D01*
X154073482Y-100322064D01*
X154056238Y-100337428D01*
X154039102Y-100339776D01*
X154014027Y-100332217D01*
X154002257Y-100327941D01*
X153954270Y-100321631D01*
X153910324Y-100335156D01*
X153878060Y-100365710D01*
X153872819Y-100375452D01*
X153867112Y-100401258D01*
X153862706Y-100448817D01*
X153859811Y-100514758D01*
X153858631Y-100595710D01*
X153858614Y-100607226D01*
X153858614Y-100807822D01*
X153720297Y-100807822D01*
X153720297Y-100191683D01*
X153789456Y-100191683D01*
X153829333Y-100192725D01*
X153850107Y-100197358D01*
X153857789Y-100207849D01*
X153858614Y-100217745D01*
X153858614Y-100243806D01*
X153891745Y-100217745D01*
X153929735Y-100199965D01*
X153980770Y-100191174D01*
X154035255Y-100191486D01*
G37*
X151406644Y-100193020D02*
X151425461Y-100198660D01*
X151431527Y-100211053D01*
X151431782Y-100216647D01*
X151432871Y-100232230D01*
X151440368Y-100234676D01*
X151460619Y-100223993D01*
X151472649Y-100216694D01*
X151510600Y-100201063D01*
X151555928Y-100193334D01*
X151603456Y-100192740D01*
X151648005Y-100198513D01*
X151684398Y-100209884D01*
X151707457Y-100226088D01*
X151712004Y-100246355D01*
X151709709Y-100251843D01*
X151692980Y-100274626D01*
X151667037Y-100302647D01*
X151662345Y-100307177D01*
X151637617Y-100328005D01*
X151616282Y-100334735D01*
X151586445Y-100330038D01*
X151574492Y-100326917D01*
X151537295Y-100319421D01*
X151511141Y-100322792D01*
X151489054Y-100334681D01*
X151468822Y-100350635D01*
X151453921Y-100370700D01*
X151443566Y-100398702D01*
X151436971Y-100438467D01*
X151433351Y-100493823D01*
X151431922Y-100568594D01*
X151431782Y-100613740D01*
X151431782Y-100807822D01*
X151306040Y-100807822D01*
X151306040Y-100191683D01*
X151368911Y-100191683D01*
X151406644Y-100193020D01*
G36*
X151406644Y-100193020D02*
G01*
X151425461Y-100198660D01*
X151431527Y-100211053D01*
X151431782Y-100216647D01*
X151432871Y-100232230D01*
X151440368Y-100234676D01*
X151460619Y-100223993D01*
X151472649Y-100216694D01*
X151510600Y-100201063D01*
X151555928Y-100193334D01*
X151603456Y-100192740D01*
X151648005Y-100198513D01*
X151684398Y-100209884D01*
X151707457Y-100226088D01*
X151712004Y-100246355D01*
X151709709Y-100251843D01*
X151692980Y-100274626D01*
X151667037Y-100302647D01*
X151662345Y-100307177D01*
X151637617Y-100328005D01*
X151616282Y-100334735D01*
X151586445Y-100330038D01*
X151574492Y-100326917D01*
X151537295Y-100319421D01*
X151511141Y-100322792D01*
X151489054Y-100334681D01*
X151468822Y-100350635D01*
X151453921Y-100370700D01*
X151443566Y-100398702D01*
X151436971Y-100438467D01*
X151433351Y-100493823D01*
X151431922Y-100568594D01*
X151431782Y-100613740D01*
X151431782Y-100807822D01*
X151306040Y-100807822D01*
X151306040Y-100191683D01*
X151368911Y-100191683D01*
X151406644Y-100193020D01*
G37*
X153393367Y-99444342D02*
X153394555Y-99536563D01*
X153398897Y-99606610D01*
X153407558Y-99657381D01*
X153421704Y-99691772D01*
X153442500Y-99712679D01*
X153471110Y-99723000D01*
X153506535Y-99725636D01*
X153543636Y-99722682D01*
X153571818Y-99711889D01*
X153592243Y-99690360D01*
X153606079Y-99655199D01*
X153614491Y-99603510D01*
X153618643Y-99532394D01*
X153619703Y-99444342D01*
X153619703Y-99248614D01*
X153758020Y-99248614D01*
X153758020Y-99852179D01*
X153688862Y-99852179D01*
X153647170Y-99850489D01*
X153625701Y-99844556D01*
X153619703Y-99833293D01*
X153616091Y-99823261D01*
X153601714Y-99825383D01*
X153572736Y-99839580D01*
X153506319Y-99861480D01*
X153435875Y-99859928D01*
X153368377Y-99836147D01*
X153336233Y-99817362D01*
X153311715Y-99797022D01*
X153293804Y-99771573D01*
X153281479Y-99737458D01*
X153273723Y-99691121D01*
X153269516Y-99629007D01*
X153267840Y-99547561D01*
X153267624Y-99484578D01*
X153267624Y-99248614D01*
X153393367Y-99248614D01*
X153393367Y-99444342D01*
G36*
X153393367Y-99444342D02*
G01*
X153394555Y-99536563D01*
X153398897Y-99606610D01*
X153407558Y-99657381D01*
X153421704Y-99691772D01*
X153442500Y-99712679D01*
X153471110Y-99723000D01*
X153506535Y-99725636D01*
X153543636Y-99722682D01*
X153571818Y-99711889D01*
X153592243Y-99690360D01*
X153606079Y-99655199D01*
X153614491Y-99603510D01*
X153618643Y-99532394D01*
X153619703Y-99444342D01*
X153619703Y-99248614D01*
X153758020Y-99248614D01*
X153758020Y-99852179D01*
X153688862Y-99852179D01*
X153647170Y-99850489D01*
X153625701Y-99844556D01*
X153619703Y-99833293D01*
X153616091Y-99823261D01*
X153601714Y-99825383D01*
X153572736Y-99839580D01*
X153506319Y-99861480D01*
X153435875Y-99859928D01*
X153368377Y-99836147D01*
X153336233Y-99817362D01*
X153311715Y-99797022D01*
X153293804Y-99771573D01*
X153281479Y-99737458D01*
X153273723Y-99691121D01*
X153269516Y-99629007D01*
X153267840Y-99547561D01*
X153267624Y-99484578D01*
X153267624Y-99248614D01*
X153393367Y-99248614D01*
X153393367Y-99444342D01*
G37*
X151645988Y-99259002D02*
X151677283Y-99273950D01*
X151707591Y-99295541D01*
X151730682Y-99320391D01*
X151747500Y-99352087D01*
X151758994Y-99394214D01*
X151766109Y-99450358D01*
X151769793Y-99524106D01*
X151770992Y-99619044D01*
X151771011Y-99628985D01*
X151771287Y-99852179D01*
X151632970Y-99852179D01*
X151632970Y-99646418D01*
X151632872Y-99570189D01*
X151632191Y-99514939D01*
X151630349Y-99476501D01*
X151626767Y-99450706D01*
X151620868Y-99433384D01*
X151612073Y-99420368D01*
X151599820Y-99407507D01*
X151556953Y-99379873D01*
X151510157Y-99374745D01*
X151465576Y-99392217D01*
X151450072Y-99405221D01*
X151438690Y-99417447D01*
X151430519Y-99430540D01*
X151425026Y-99448615D01*
X151421680Y-99475787D01*
X151419949Y-99516170D01*
X151419303Y-99573879D01*
X151419208Y-99644132D01*
X151419208Y-99852179D01*
X151280891Y-99852179D01*
X151280891Y-99248614D01*
X151350050Y-99248614D01*
X151391572Y-99250256D01*
X151412994Y-99256087D01*
X151419205Y-99267461D01*
X151419208Y-99267798D01*
X151422090Y-99278938D01*
X151434801Y-99277674D01*
X151460074Y-99265434D01*
X151517395Y-99247424D01*
X151582963Y-99245421D01*
X151645988Y-99259002D01*
G36*
X151645988Y-99259002D02*
G01*
X151677283Y-99273950D01*
X151707591Y-99295541D01*
X151730682Y-99320391D01*
X151747500Y-99352087D01*
X151758994Y-99394214D01*
X151766109Y-99450358D01*
X151769793Y-99524106D01*
X151770992Y-99619044D01*
X151771011Y-99628985D01*
X151771287Y-99852179D01*
X151632970Y-99852179D01*
X151632970Y-99646418D01*
X151632872Y-99570189D01*
X151632191Y-99514939D01*
X151630349Y-99476501D01*
X151626767Y-99450706D01*
X151620868Y-99433384D01*
X151612073Y-99420368D01*
X151599820Y-99407507D01*
X151556953Y-99379873D01*
X151510157Y-99374745D01*
X151465576Y-99392217D01*
X151450072Y-99405221D01*
X151438690Y-99417447D01*
X151430519Y-99430540D01*
X151425026Y-99448615D01*
X151421680Y-99475787D01*
X151419949Y-99516170D01*
X151419303Y-99573879D01*
X151419208Y-99644132D01*
X151419208Y-99852179D01*
X151280891Y-99852179D01*
X151280891Y-99248614D01*
X151350050Y-99248614D01*
X151391572Y-99250256D01*
X151412994Y-99256087D01*
X151419205Y-99267461D01*
X151419208Y-99267798D01*
X151422090Y-99278938D01*
X151434801Y-99277674D01*
X151460074Y-99265434D01*
X151517395Y-99247424D01*
X151582963Y-99245421D01*
X151645988Y-99259002D01*
G37*
X154617226Y-99253880D02*
X154690080Y-99284830D01*
X154713027Y-99299895D01*
X154742354Y-99323048D01*
X154760764Y-99341253D01*
X154763961Y-99347183D01*
X154754935Y-99360340D01*
X154731837Y-99382667D01*
X154713344Y-99398250D01*
X154662728Y-99438926D01*
X154622760Y-99405295D01*
X154591874Y-99383584D01*
X154561759Y-99376090D01*
X154527292Y-99377920D01*
X154472561Y-99391528D01*
X154434886Y-99419772D01*
X154411991Y-99465433D01*
X154401597Y-99531289D01*
X154401595Y-99531331D01*
X154402494Y-99604939D01*
X154416463Y-99658946D01*
X154444328Y-99695716D01*
X154463325Y-99708168D01*
X154513776Y-99723673D01*
X154567663Y-99723683D01*
X154614546Y-99708638D01*
X154625644Y-99701287D01*
X154653476Y-99682511D01*
X154675236Y-99679434D01*
X154698704Y-99693409D01*
X154724649Y-99718510D01*
X154765716Y-99760880D01*
X154720121Y-99798464D01*
X154649674Y-99840882D01*
X154570233Y-99861785D01*
X154487215Y-99860272D01*
X154432694Y-99846411D01*
X154368970Y-99812135D01*
X154318005Y-99758212D01*
X154294851Y-99720149D01*
X154276099Y-99665536D01*
X154266715Y-99596369D01*
X154266643Y-99521407D01*
X154275824Y-99449409D01*
X154294199Y-99389137D01*
X154297093Y-99382958D01*
X154339952Y-99322351D01*
X154397979Y-99278224D01*
X154466591Y-99251493D01*
X154541201Y-99243073D01*
X154617226Y-99253880D01*
G36*
X154617226Y-99253880D02*
G01*
X154690080Y-99284830D01*
X154713027Y-99299895D01*
X154742354Y-99323048D01*
X154760764Y-99341253D01*
X154763961Y-99347183D01*
X154754935Y-99360340D01*
X154731837Y-99382667D01*
X154713344Y-99398250D01*
X154662728Y-99438926D01*
X154622760Y-99405295D01*
X154591874Y-99383584D01*
X154561759Y-99376090D01*
X154527292Y-99377920D01*
X154472561Y-99391528D01*
X154434886Y-99419772D01*
X154411991Y-99465433D01*
X154401597Y-99531289D01*
X154401595Y-99531331D01*
X154402494Y-99604939D01*
X154416463Y-99658946D01*
X154444328Y-99695716D01*
X154463325Y-99708168D01*
X154513776Y-99723673D01*
X154567663Y-99723683D01*
X154614546Y-99708638D01*
X154625644Y-99701287D01*
X154653476Y-99682511D01*
X154675236Y-99679434D01*
X154698704Y-99693409D01*
X154724649Y-99718510D01*
X154765716Y-99760880D01*
X154720121Y-99798464D01*
X154649674Y-99840882D01*
X154570233Y-99861785D01*
X154487215Y-99860272D01*
X154432694Y-99846411D01*
X154368970Y-99812135D01*
X154318005Y-99758212D01*
X154294851Y-99720149D01*
X154276099Y-99665536D01*
X154266715Y-99596369D01*
X154266643Y-99521407D01*
X154275824Y-99449409D01*
X154294199Y-99389137D01*
X154297093Y-99382958D01*
X154339952Y-99322351D01*
X154397979Y-99278224D01*
X154466591Y-99251493D01*
X154541201Y-99243073D01*
X154617226Y-99253880D01*
G37*
X153010762Y-99256055D02*
X153074363Y-99290692D01*
X153124123Y-99345372D01*
X153147568Y-99389842D01*
X153157634Y-99429121D01*
X153164156Y-99485116D01*
X153166951Y-99549621D01*
X153165836Y-99614429D01*
X153160626Y-99671334D01*
X153154541Y-99701727D01*
X153134014Y-99743306D01*
X153098463Y-99787468D01*
X153055619Y-99826087D01*
X153013211Y-99851034D01*
X153012177Y-99851430D01*
X152959553Y-99862331D01*
X152897188Y-99862601D01*
X152837924Y-99852676D01*
X152815040Y-99844722D01*
X152756102Y-99811300D01*
X152713890Y-99767511D01*
X152686156Y-99709538D01*
X152670651Y-99633565D01*
X152667143Y-99593771D01*
X152667590Y-99543766D01*
X152802376Y-99543766D01*
X152806917Y-99616732D01*
X152819986Y-99672334D01*
X152840756Y-99707861D01*
X152855552Y-99718020D01*
X152893464Y-99725104D01*
X152938527Y-99723007D01*
X152977487Y-99712812D01*
X152987704Y-99707204D01*
X153014659Y-99674538D01*
X153032451Y-99624545D01*
X153040024Y-99563705D01*
X153036325Y-99498497D01*
X153028057Y-99459253D01*
X153004320Y-99413805D01*
X152966849Y-99385396D01*
X152921720Y-99375573D01*
X152875011Y-99385887D01*
X152839132Y-99411112D01*
X152820277Y-99431925D01*
X152809272Y-99452439D01*
X152804026Y-99480203D01*
X152802449Y-99522762D01*
X152802376Y-99543766D01*
X152667590Y-99543766D01*
X152668094Y-99487580D01*
X152685388Y-99400501D01*
X152719029Y-99332530D01*
X152769018Y-99283664D01*
X152835356Y-99253899D01*
X152849601Y-99250448D01*
X152935210Y-99242345D01*
X153010762Y-99256055D01*
G36*
X153010762Y-99256055D02*
G01*
X153074363Y-99290692D01*
X153124123Y-99345372D01*
X153147568Y-99389842D01*
X153157634Y-99429121D01*
X153164156Y-99485116D01*
X153166951Y-99549621D01*
X153165836Y-99614429D01*
X153160626Y-99671334D01*
X153154541Y-99701727D01*
X153134014Y-99743306D01*
X153098463Y-99787468D01*
X153055619Y-99826087D01*
X153013211Y-99851034D01*
X153012177Y-99851430D01*
X152959553Y-99862331D01*
X152897188Y-99862601D01*
X152837924Y-99852676D01*
X152815040Y-99844722D01*
X152756102Y-99811300D01*
X152713890Y-99767511D01*
X152686156Y-99709538D01*
X152670651Y-99633565D01*
X152667143Y-99593771D01*
X152667590Y-99543766D01*
X152802376Y-99543766D01*
X152806917Y-99616732D01*
X152819986Y-99672334D01*
X152840756Y-99707861D01*
X152855552Y-99718020D01*
X152893464Y-99725104D01*
X152938527Y-99723007D01*
X152977487Y-99712812D01*
X152987704Y-99707204D01*
X153014659Y-99674538D01*
X153032451Y-99624545D01*
X153040024Y-99563705D01*
X153036325Y-99498497D01*
X153028057Y-99459253D01*
X153004320Y-99413805D01*
X152966849Y-99385396D01*
X152921720Y-99375573D01*
X152875011Y-99385887D01*
X152839132Y-99411112D01*
X152820277Y-99431925D01*
X152809272Y-99452439D01*
X152804026Y-99480203D01*
X152802449Y-99522762D01*
X152802376Y-99543766D01*
X152667590Y-99543766D01*
X152668094Y-99487580D01*
X152685388Y-99400501D01*
X152719029Y-99332530D01*
X152769018Y-99283664D01*
X152835356Y-99253899D01*
X152849601Y-99250448D01*
X152935210Y-99242345D01*
X153010762Y-99256055D01*
G37*
X152681524Y-100194237D02*
X152731255Y-100197971D01*
X152861291Y-100587773D01*
X152881678Y-100518614D01*
X152893946Y-100475874D01*
X152910085Y-100418115D01*
X152927512Y-100354625D01*
X152936726Y-100320570D01*
X152971388Y-100191683D01*
X153114391Y-100191683D01*
X153071646Y-100326857D01*
X153050596Y-100393342D01*
X153025167Y-100473539D01*
X152998610Y-100557193D01*
X152974902Y-100631782D01*
X152920902Y-100801535D01*
X152862598Y-100805328D01*
X152804295Y-100809122D01*
X152772679Y-100704734D01*
X152753182Y-100639889D01*
X152731904Y-100568400D01*
X152713308Y-100505263D01*
X152712574Y-100502750D01*
X152698684Y-100459969D01*
X152686429Y-100430779D01*
X152677846Y-100419741D01*
X152676082Y-100421018D01*
X152669891Y-100438130D01*
X152658128Y-100474787D01*
X152642225Y-100526378D01*
X152623614Y-100588294D01*
X152613543Y-100622352D01*
X152559007Y-100807822D01*
X152443264Y-100807822D01*
X152350737Y-100515471D01*
X152324744Y-100433462D01*
X152301066Y-100358987D01*
X152280820Y-100295544D01*
X152265126Y-100246632D01*
X152255102Y-100215749D01*
X152252055Y-100206726D01*
X152254467Y-100197487D01*
X152273408Y-100193441D01*
X152312823Y-100193846D01*
X152318993Y-100194152D01*
X152392086Y-100197971D01*
X152439957Y-100374010D01*
X152457553Y-100438211D01*
X152473277Y-100494649D01*
X152485746Y-100538422D01*
X152493574Y-100564630D01*
X152495020Y-100568903D01*
X152501014Y-100563990D01*
X152513101Y-100538532D01*
X152529893Y-100495997D01*
X152550003Y-100439850D01*
X152567003Y-100389130D01*
X152631794Y-100190504D01*
X152681524Y-100194237D01*
G36*
X152681524Y-100194237D02*
G01*
X152731255Y-100197971D01*
X152861291Y-100587773D01*
X152881678Y-100518614D01*
X152893946Y-100475874D01*
X152910085Y-100418115D01*
X152927512Y-100354625D01*
X152936726Y-100320570D01*
X152971388Y-100191683D01*
X153114391Y-100191683D01*
X153071646Y-100326857D01*
X153050596Y-100393342D01*
X153025167Y-100473539D01*
X152998610Y-100557193D01*
X152974902Y-100631782D01*
X152920902Y-100801535D01*
X152862598Y-100805328D01*
X152804295Y-100809122D01*
X152772679Y-100704734D01*
X152753182Y-100639889D01*
X152731904Y-100568400D01*
X152713308Y-100505263D01*
X152712574Y-100502750D01*
X152698684Y-100459969D01*
X152686429Y-100430779D01*
X152677846Y-100419741D01*
X152676082Y-100421018D01*
X152669891Y-100438130D01*
X152658128Y-100474787D01*
X152642225Y-100526378D01*
X152623614Y-100588294D01*
X152613543Y-100622352D01*
X152559007Y-100807822D01*
X152443264Y-100807822D01*
X152350737Y-100515471D01*
X152324744Y-100433462D01*
X152301066Y-100358987D01*
X152280820Y-100295544D01*
X152265126Y-100246632D01*
X152255102Y-100215749D01*
X152252055Y-100206726D01*
X152254467Y-100197487D01*
X152273408Y-100193441D01*
X152312823Y-100193846D01*
X152318993Y-100194152D01*
X152392086Y-100197971D01*
X152439957Y-100374010D01*
X152457553Y-100438211D01*
X152473277Y-100494649D01*
X152485746Y-100538422D01*
X152493574Y-100564630D01*
X152495020Y-100568903D01*
X152501014Y-100563990D01*
X152513101Y-100538532D01*
X152529893Y-100495997D01*
X152550003Y-100439850D01*
X152567003Y-100389130D01*
X152631794Y-100190504D01*
X152681524Y-100194237D01*
G37*
X149861739Y-99255148D02*
X149927521Y-99284231D01*
X149977460Y-99332793D01*
X150011626Y-99400908D01*
X150030093Y-99488651D01*
X150031417Y-99502351D01*
X150032454Y-99598939D01*
X150019007Y-99683602D01*
X149991892Y-99752221D01*
X149977373Y-99774294D01*
X149926799Y-99821011D01*
X149862391Y-99851268D01*
X149790334Y-99863824D01*
X149716815Y-99857439D01*
X149660928Y-99837772D01*
X149612868Y-99804629D01*
X149573588Y-99761175D01*
X149572908Y-99760158D01*
X149556956Y-99733338D01*
X149546590Y-99706368D01*
X149540312Y-99672332D01*
X149536627Y-99624310D01*
X149535003Y-99584931D01*
X149534328Y-99549219D01*
X149660045Y-99549219D01*
X149661274Y-99584770D01*
X149665734Y-99632094D01*
X149673603Y-99662465D01*
X149687793Y-99684072D01*
X149701083Y-99696694D01*
X149748198Y-99723122D01*
X149797495Y-99726653D01*
X149843407Y-99707639D01*
X149866362Y-99686331D01*
X149882904Y-99664859D01*
X149892579Y-99644313D01*
X149896826Y-99617574D01*
X149897080Y-99577523D01*
X149895772Y-99540638D01*
X149892957Y-99487947D01*
X149888495Y-99453772D01*
X149880452Y-99431480D01*
X149866897Y-99414442D01*
X149856155Y-99404703D01*
X149811223Y-99379123D01*
X149762751Y-99377847D01*
X149722106Y-99392999D01*
X149687433Y-99424642D01*
X149666776Y-99476620D01*
X149660045Y-99549219D01*
X149534328Y-99549219D01*
X149533521Y-99506621D01*
X149536052Y-99448056D01*
X149543638Y-99404007D01*
X149557319Y-99369248D01*
X149578135Y-99338551D01*
X149585853Y-99329436D01*
X149634111Y-99284021D01*
X149685872Y-99257493D01*
X149749172Y-99246379D01*
X149780039Y-99245471D01*
X149861739Y-99255148D01*
G36*
X149861739Y-99255148D02*
G01*
X149927521Y-99284231D01*
X149977460Y-99332793D01*
X150011626Y-99400908D01*
X150030093Y-99488651D01*
X150031417Y-99502351D01*
X150032454Y-99598939D01*
X150019007Y-99683602D01*
X149991892Y-99752221D01*
X149977373Y-99774294D01*
X149926799Y-99821011D01*
X149862391Y-99851268D01*
X149790334Y-99863824D01*
X149716815Y-99857439D01*
X149660928Y-99837772D01*
X149612868Y-99804629D01*
X149573588Y-99761175D01*
X149572908Y-99760158D01*
X149556956Y-99733338D01*
X149546590Y-99706368D01*
X149540312Y-99672332D01*
X149536627Y-99624310D01*
X149535003Y-99584931D01*
X149534328Y-99549219D01*
X149660045Y-99549219D01*
X149661274Y-99584770D01*
X149665734Y-99632094D01*
X149673603Y-99662465D01*
X149687793Y-99684072D01*
X149701083Y-99696694D01*
X149748198Y-99723122D01*
X149797495Y-99726653D01*
X149843407Y-99707639D01*
X149866362Y-99686331D01*
X149882904Y-99664859D01*
X149892579Y-99644313D01*
X149896826Y-99617574D01*
X149897080Y-99577523D01*
X149895772Y-99540638D01*
X149892957Y-99487947D01*
X149888495Y-99453772D01*
X149880452Y-99431480D01*
X149866897Y-99414442D01*
X149856155Y-99404703D01*
X149811223Y-99379123D01*
X149762751Y-99377847D01*
X149722106Y-99392999D01*
X149687433Y-99424642D01*
X149666776Y-99476620D01*
X149660045Y-99549219D01*
X149534328Y-99549219D01*
X149533521Y-99506621D01*
X149536052Y-99448056D01*
X149543638Y-99404007D01*
X149557319Y-99369248D01*
X149578135Y-99338551D01*
X149585853Y-99329436D01*
X149634111Y-99284021D01*
X149685872Y-99257493D01*
X149749172Y-99246379D01*
X149780039Y-99245471D01*
X149861739Y-99255148D01*
G37*
X152198812Y-100807822D02*
X152129654Y-100807822D01*
X152089512Y-100806645D01*
X152068606Y-100801772D01*
X152061078Y-100791186D01*
X152060495Y-100784029D01*
X152059226Y-100769676D01*
X152051221Y-100766923D01*
X152030185Y-100775771D01*
X152013827Y-100784029D01*
X151951023Y-100803597D01*
X151882752Y-100804729D01*
X151827248Y-100790135D01*
X151775562Y-100754877D01*
X151736162Y-100702835D01*
X151714587Y-100641450D01*
X151714038Y-100638018D01*
X151710833Y-100600571D01*
X151709239Y-100546813D01*
X151709367Y-100506155D01*
X151846721Y-100506155D01*
X151849903Y-100560194D01*
X151857141Y-100604735D01*
X151866940Y-100629888D01*
X151904011Y-100664260D01*
X151948026Y-100676582D01*
X151993416Y-100666618D01*
X152032203Y-100636895D01*
X152046892Y-100616905D01*
X152055481Y-100593050D01*
X152059504Y-100558230D01*
X152060495Y-100505930D01*
X152058722Y-100454139D01*
X152054037Y-100408634D01*
X152047397Y-100378181D01*
X152046290Y-100375452D01*
X152019509Y-100343000D01*
X151980421Y-100325183D01*
X151936685Y-100322306D01*
X151895962Y-100334674D01*
X151865913Y-100362593D01*
X151862796Y-100368148D01*
X151853039Y-100402022D01*
X151847723Y-100450728D01*
X151846721Y-100506155D01*
X151709367Y-100506155D01*
X151709432Y-100485540D01*
X151710336Y-100452563D01*
X151716486Y-100370981D01*
X151729267Y-100309730D01*
X151750529Y-100264449D01*
X151782122Y-100230779D01*
X151812793Y-100211014D01*
X151855646Y-100197120D01*
X151908944Y-100192354D01*
X151963520Y-100196236D01*
X152010208Y-100208282D01*
X152034876Y-100222693D01*
X152060495Y-100245878D01*
X152060495Y-99952773D01*
X152198812Y-99952773D01*
X152198812Y-100807822D01*
G36*
X152198812Y-100807822D02*
G01*
X152129654Y-100807822D01*
X152089512Y-100806645D01*
X152068606Y-100801772D01*
X152061078Y-100791186D01*
X152060495Y-100784029D01*
X152059226Y-100769676D01*
X152051221Y-100766923D01*
X152030185Y-100775771D01*
X152013827Y-100784029D01*
X151951023Y-100803597D01*
X151882752Y-100804729D01*
X151827248Y-100790135D01*
X151775562Y-100754877D01*
X151736162Y-100702835D01*
X151714587Y-100641450D01*
X151714038Y-100638018D01*
X151710833Y-100600571D01*
X151709239Y-100546813D01*
X151709367Y-100506155D01*
X151846721Y-100506155D01*
X151849903Y-100560194D01*
X151857141Y-100604735D01*
X151866940Y-100629888D01*
X151904011Y-100664260D01*
X151948026Y-100676582D01*
X151993416Y-100666618D01*
X152032203Y-100636895D01*
X152046892Y-100616905D01*
X152055481Y-100593050D01*
X152059504Y-100558230D01*
X152060495Y-100505930D01*
X152058722Y-100454139D01*
X152054037Y-100408634D01*
X152047397Y-100378181D01*
X152046290Y-100375452D01*
X152019509Y-100343000D01*
X151980421Y-100325183D01*
X151936685Y-100322306D01*
X151895962Y-100334674D01*
X151865913Y-100362593D01*
X151862796Y-100368148D01*
X151853039Y-100402022D01*
X151847723Y-100450728D01*
X151846721Y-100506155D01*
X151709367Y-100506155D01*
X151709432Y-100485540D01*
X151710336Y-100452563D01*
X151716486Y-100370981D01*
X151729267Y-100309730D01*
X151750529Y-100264449D01*
X151782122Y-100230779D01*
X151812793Y-100211014D01*
X151855646Y-100197120D01*
X151908944Y-100192354D01*
X151963520Y-100196236D01*
X152010208Y-100208282D01*
X152034876Y-100222693D01*
X152060495Y-100245878D01*
X152060495Y-99952773D01*
X152198812Y-99952773D01*
X152198812Y-100807822D01*
G37*
X155077898Y-99246457D02*
X155110096Y-99254279D01*
X155171825Y-99282921D01*
X155224610Y-99326667D01*
X155261141Y-99379117D01*
X155266160Y-99390893D01*
X155273045Y-99421740D01*
X155277864Y-99467371D01*
X155279505Y-99513492D01*
X155279505Y-99600693D01*
X155097178Y-99600693D01*
X155021979Y-99600978D01*
X154969003Y-99602704D01*
X154935325Y-99607181D01*
X154918020Y-99615720D01*
X154914163Y-99629630D01*
X154920829Y-99650222D01*
X154932770Y-99674315D01*
X154966080Y-99714525D01*
X155012368Y-99734558D01*
X155068944Y-99733905D01*
X155133031Y-99712101D01*
X155188417Y-99685193D01*
X155234375Y-99721532D01*
X155280333Y-99757872D01*
X155237096Y-99797819D01*
X155179374Y-99835563D01*
X155108386Y-99858320D01*
X155032029Y-99864688D01*
X154958199Y-99853268D01*
X154946287Y-99849393D01*
X154881399Y-99815506D01*
X154833130Y-99764986D01*
X154800465Y-99696325D01*
X154782385Y-99608014D01*
X154782175Y-99606121D01*
X154780556Y-99509878D01*
X154787100Y-99475542D01*
X154914852Y-99475542D01*
X154926584Y-99480822D01*
X154958438Y-99484867D01*
X155005397Y-99487176D01*
X155035154Y-99487525D01*
X155090648Y-99487306D01*
X155125346Y-99485916D01*
X155143601Y-99482251D01*
X155149766Y-99475210D01*
X155148195Y-99463690D01*
X155146878Y-99459233D01*
X155124382Y-99417355D01*
X155089003Y-99383604D01*
X155057780Y-99368773D01*
X155016301Y-99369668D01*
X154974269Y-99388164D01*
X154939012Y-99418786D01*
X154917854Y-99456062D01*
X154914852Y-99475542D01*
X154787100Y-99475542D01*
X154796690Y-99425229D01*
X154828698Y-99354191D01*
X154874701Y-99298779D01*
X154932821Y-99261009D01*
X155001180Y-99242896D01*
X155077898Y-99246457D01*
G36*
X155077898Y-99246457D02*
G01*
X155110096Y-99254279D01*
X155171825Y-99282921D01*
X155224610Y-99326667D01*
X155261141Y-99379117D01*
X155266160Y-99390893D01*
X155273045Y-99421740D01*
X155277864Y-99467371D01*
X155279505Y-99513492D01*
X155279505Y-99600693D01*
X155097178Y-99600693D01*
X155021979Y-99600978D01*
X154969003Y-99602704D01*
X154935325Y-99607181D01*
X154918020Y-99615720D01*
X154914163Y-99629630D01*
X154920829Y-99650222D01*
X154932770Y-99674315D01*
X154966080Y-99714525D01*
X155012368Y-99734558D01*
X155068944Y-99733905D01*
X155133031Y-99712101D01*
X155188417Y-99685193D01*
X155234375Y-99721532D01*
X155280333Y-99757872D01*
X155237096Y-99797819D01*
X155179374Y-99835563D01*
X155108386Y-99858320D01*
X155032029Y-99864688D01*
X154958199Y-99853268D01*
X154946287Y-99849393D01*
X154881399Y-99815506D01*
X154833130Y-99764986D01*
X154800465Y-99696325D01*
X154782385Y-99608014D01*
X154782175Y-99606121D01*
X154780556Y-99509878D01*
X154787100Y-99475542D01*
X154914852Y-99475542D01*
X154926584Y-99480822D01*
X154958438Y-99484867D01*
X155005397Y-99487176D01*
X155035154Y-99487525D01*
X155090648Y-99487306D01*
X155125346Y-99485916D01*
X155143601Y-99482251D01*
X155149766Y-99475210D01*
X155148195Y-99463690D01*
X155146878Y-99459233D01*
X155124382Y-99417355D01*
X155089003Y-99383604D01*
X155057780Y-99368773D01*
X155016301Y-99369668D01*
X154974269Y-99388164D01*
X154939012Y-99418786D01*
X154917854Y-99456062D01*
X154914852Y-99475542D01*
X154787100Y-99475542D01*
X154796690Y-99425229D01*
X154828698Y-99354191D01*
X154874701Y-99298779D01*
X154932821Y-99261009D01*
X155001180Y-99242896D01*
X155077898Y-99246457D01*
G37*
X152414017Y-99246452D02*
X152461634Y-99255482D01*
X152511034Y-99274370D01*
X152516312Y-99276777D01*
X152553774Y-99296476D01*
X152579717Y-99314781D01*
X152588103Y-99326508D01*
X152580117Y-99345632D01*
X152560720Y-99373850D01*
X152552110Y-99384384D01*
X152516628Y-99425847D01*
X152470885Y-99398858D01*
X152427350Y-99380878D01*
X152377050Y-99371267D01*
X152328812Y-99370660D01*
X152291467Y-99379691D01*
X152282505Y-99385327D01*
X152265437Y-99411171D01*
X152263363Y-99440941D01*
X152276134Y-99464197D01*
X152283688Y-99468708D01*
X152306325Y-99474309D01*
X152346115Y-99480892D01*
X152395166Y-99487183D01*
X152404215Y-99488170D01*
X152482996Y-99501798D01*
X152540136Y-99524946D01*
X152578030Y-99559752D01*
X152599079Y-99608354D01*
X152605635Y-99667718D01*
X152596577Y-99735198D01*
X152567164Y-99788188D01*
X152517278Y-99826783D01*
X152446800Y-99851081D01*
X152368565Y-99860667D01*
X152304766Y-99860552D01*
X152253016Y-99851845D01*
X152217673Y-99839825D01*
X152173017Y-99818880D01*
X152131747Y-99794574D01*
X152117079Y-99783876D01*
X152079357Y-99753084D01*
X152124852Y-99707049D01*
X152170347Y-99661013D01*
X152222072Y-99695243D01*
X152273952Y-99720952D01*
X152329351Y-99734399D01*
X152382605Y-99735818D01*
X152428049Y-99725443D01*
X152460016Y-99703507D01*
X152470338Y-99684998D01*
X152468789Y-99655314D01*
X152443140Y-99632615D01*
X152393460Y-99616940D01*
X152339031Y-99609695D01*
X152255264Y-99595873D01*
X152193033Y-99569796D01*
X152151507Y-99530699D01*
X152129853Y-99477820D01*
X152126853Y-99415126D01*
X152141671Y-99349642D01*
X152175454Y-99300144D01*
X152228505Y-99266408D01*
X152301126Y-99248207D01*
X152354928Y-99244639D01*
X152414017Y-99246452D01*
G36*
X152414017Y-99246452D02*
G01*
X152461634Y-99255482D01*
X152511034Y-99274370D01*
X152516312Y-99276777D01*
X152553774Y-99296476D01*
X152579717Y-99314781D01*
X152588103Y-99326508D01*
X152580117Y-99345632D01*
X152560720Y-99373850D01*
X152552110Y-99384384D01*
X152516628Y-99425847D01*
X152470885Y-99398858D01*
X152427350Y-99380878D01*
X152377050Y-99371267D01*
X152328812Y-99370660D01*
X152291467Y-99379691D01*
X152282505Y-99385327D01*
X152265437Y-99411171D01*
X152263363Y-99440941D01*
X152276134Y-99464197D01*
X152283688Y-99468708D01*
X152306325Y-99474309D01*
X152346115Y-99480892D01*
X152395166Y-99487183D01*
X152404215Y-99488170D01*
X152482996Y-99501798D01*
X152540136Y-99524946D01*
X152578030Y-99559752D01*
X152599079Y-99608354D01*
X152605635Y-99667718D01*
X152596577Y-99735198D01*
X152567164Y-99788188D01*
X152517278Y-99826783D01*
X152446800Y-99851081D01*
X152368565Y-99860667D01*
X152304766Y-99860552D01*
X152253016Y-99851845D01*
X152217673Y-99839825D01*
X152173017Y-99818880D01*
X152131747Y-99794574D01*
X152117079Y-99783876D01*
X152079357Y-99753084D01*
X152124852Y-99707049D01*
X152170347Y-99661013D01*
X152222072Y-99695243D01*
X152273952Y-99720952D01*
X152329351Y-99734399D01*
X152382605Y-99735818D01*
X152428049Y-99725443D01*
X152460016Y-99703507D01*
X152470338Y-99684998D01*
X152468789Y-99655314D01*
X152443140Y-99632615D01*
X152393460Y-99616940D01*
X152339031Y-99609695D01*
X152255264Y-99595873D01*
X152193033Y-99569796D01*
X152151507Y-99530699D01*
X152129853Y-99477820D01*
X152126853Y-99415126D01*
X152141671Y-99349642D01*
X152175454Y-99300144D01*
X152228505Y-99266408D01*
X152301126Y-99248207D01*
X152354928Y-99244639D01*
X152414017Y-99246452D01*
G37*
X154432581Y-100194970D02*
X154492685Y-100210597D01*
X154543021Y-100242848D01*
X154567393Y-100266940D01*
X154607345Y-100323895D01*
X154630242Y-100389965D01*
X154638108Y-100471182D01*
X154638148Y-100477748D01*
X154638218Y-100543763D01*
X154258264Y-100543763D01*
X154266363Y-100578342D01*
X154280987Y-100609659D01*
X154306581Y-100642291D01*
X154311935Y-100647500D01*
X154357943Y-100675694D01*
X154410410Y-100680475D01*
X154470803Y-100661926D01*
X154481040Y-100656931D01*
X154512439Y-100641745D01*
X154533470Y-100633094D01*
X154537139Y-100632293D01*
X154549948Y-100640063D01*
X154574378Y-100659072D01*
X154586779Y-100669460D01*
X154612476Y-100693321D01*
X154620915Y-100709077D01*
X154615058Y-100723571D01*
X154611928Y-100727534D01*
X154590725Y-100744879D01*
X154555738Y-100765959D01*
X154531337Y-100778265D01*
X154462072Y-100799946D01*
X154385388Y-100806971D01*
X154312765Y-100798647D01*
X154292426Y-100792686D01*
X154229476Y-100758952D01*
X154182815Y-100707045D01*
X154152173Y-100636459D01*
X154137282Y-100546692D01*
X154135647Y-100499753D01*
X154140421Y-100431413D01*
X154260990Y-100431413D01*
X154272652Y-100436465D01*
X154303998Y-100440429D01*
X154349571Y-100442768D01*
X154380446Y-100443169D01*
X154435981Y-100442783D01*
X154471033Y-100440975D01*
X154490262Y-100436773D01*
X154498330Y-100429203D01*
X154499901Y-100418218D01*
X154489121Y-100384381D01*
X154461980Y-100350940D01*
X154426277Y-100325272D01*
X154390560Y-100314772D01*
X154342048Y-100324086D01*
X154300053Y-100351013D01*
X154270936Y-100389827D01*
X154260990Y-100431413D01*
X154140421Y-100431413D01*
X154142599Y-100400236D01*
X154164055Y-100320949D01*
X154200470Y-100261263D01*
X154252297Y-100220549D01*
X154319990Y-100198179D01*
X154356662Y-100193871D01*
X154432581Y-100194970D01*
G36*
X154432581Y-100194970D02*
G01*
X154492685Y-100210597D01*
X154543021Y-100242848D01*
X154567393Y-100266940D01*
X154607345Y-100323895D01*
X154630242Y-100389965D01*
X154638108Y-100471182D01*
X154638148Y-100477748D01*
X154638218Y-100543763D01*
X154258264Y-100543763D01*
X154266363Y-100578342D01*
X154280987Y-100609659D01*
X154306581Y-100642291D01*
X154311935Y-100647500D01*
X154357943Y-100675694D01*
X154410410Y-100680475D01*
X154470803Y-100661926D01*
X154481040Y-100656931D01*
X154512439Y-100641745D01*
X154533470Y-100633094D01*
X154537139Y-100632293D01*
X154549948Y-100640063D01*
X154574378Y-100659072D01*
X154586779Y-100669460D01*
X154612476Y-100693321D01*
X154620915Y-100709077D01*
X154615058Y-100723571D01*
X154611928Y-100727534D01*
X154590725Y-100744879D01*
X154555738Y-100765959D01*
X154531337Y-100778265D01*
X154462072Y-100799946D01*
X154385388Y-100806971D01*
X154312765Y-100798647D01*
X154292426Y-100792686D01*
X154229476Y-100758952D01*
X154182815Y-100707045D01*
X154152173Y-100636459D01*
X154137282Y-100546692D01*
X154135647Y-100499753D01*
X154140421Y-100431413D01*
X154260990Y-100431413D01*
X154272652Y-100436465D01*
X154303998Y-100440429D01*
X154349571Y-100442768D01*
X154380446Y-100443169D01*
X154435981Y-100442783D01*
X154471033Y-100440975D01*
X154490262Y-100436773D01*
X154498330Y-100429203D01*
X154499901Y-100418218D01*
X154489121Y-100384381D01*
X154461980Y-100350940D01*
X154426277Y-100325272D01*
X154390560Y-100314772D01*
X154342048Y-100324086D01*
X154300053Y-100351013D01*
X154270936Y-100389827D01*
X154260990Y-100431413D01*
X154140421Y-100431413D01*
X154142599Y-100400236D01*
X154164055Y-100320949D01*
X154200470Y-100261263D01*
X154252297Y-100220549D01*
X154319990Y-100198179D01*
X154356662Y-100193871D01*
X154432581Y-100194970D01*
G37*
X151043301Y-99262614D02*
X151055832Y-99268514D01*
X151099201Y-99300283D01*
X151140210Y-99346646D01*
X151170832Y-99397696D01*
X151179541Y-99421166D01*
X151187488Y-99463091D01*
X151192226Y-99513757D01*
X151192801Y-99534679D01*
X151192871Y-99600693D01*
X150812917Y-99600693D01*
X150821017Y-99635273D01*
X150840896Y-99676170D01*
X150875653Y-99711514D01*
X150917002Y-99734282D01*
X150943351Y-99739010D01*
X150979084Y-99733273D01*
X151021718Y-99718882D01*
X151036201Y-99712262D01*
X151089760Y-99685513D01*
X151135467Y-99720376D01*
X151161842Y-99743955D01*
X151175876Y-99763417D01*
X151176586Y-99769129D01*
X151164049Y-99782973D01*
X151136572Y-99804012D01*
X151111634Y-99820425D01*
X151044336Y-99849930D01*
X150968890Y-99863284D01*
X150894112Y-99859812D01*
X150834505Y-99841663D01*
X150773059Y-99802784D01*
X150729392Y-99751595D01*
X150702074Y-99685367D01*
X150689678Y-99601371D01*
X150688579Y-99562936D01*
X150692978Y-99474861D01*
X150693518Y-99472299D01*
X150819418Y-99472299D01*
X150822885Y-99480558D01*
X150837137Y-99485113D01*
X150866530Y-99487065D01*
X150915425Y-99487517D01*
X150934252Y-99487525D01*
X150991533Y-99486843D01*
X151027859Y-99484364D01*
X151047396Y-99479443D01*
X151054310Y-99471434D01*
X151054555Y-99468862D01*
X151046664Y-99448423D01*
X151026915Y-99419789D01*
X151018425Y-99409763D01*
X150986906Y-99381408D01*
X150954051Y-99370259D01*
X150936349Y-99369327D01*
X150888461Y-99380981D01*
X150848301Y-99412285D01*
X150822827Y-99457752D01*
X150822375Y-99459233D01*
X150819418Y-99472299D01*
X150693518Y-99472299D01*
X150707608Y-99405510D01*
X150733962Y-99350025D01*
X150766193Y-99310639D01*
X150825783Y-99267931D01*
X150895832Y-99245109D01*
X150970339Y-99243046D01*
X151043301Y-99262614D01*
G36*
X151043301Y-99262614D02*
G01*
X151055832Y-99268514D01*
X151099201Y-99300283D01*
X151140210Y-99346646D01*
X151170832Y-99397696D01*
X151179541Y-99421166D01*
X151187488Y-99463091D01*
X151192226Y-99513757D01*
X151192801Y-99534679D01*
X151192871Y-99600693D01*
X150812917Y-99600693D01*
X150821017Y-99635273D01*
X150840896Y-99676170D01*
X150875653Y-99711514D01*
X150917002Y-99734282D01*
X150943351Y-99739010D01*
X150979084Y-99733273D01*
X151021718Y-99718882D01*
X151036201Y-99712262D01*
X151089760Y-99685513D01*
X151135467Y-99720376D01*
X151161842Y-99743955D01*
X151175876Y-99763417D01*
X151176586Y-99769129D01*
X151164049Y-99782973D01*
X151136572Y-99804012D01*
X151111634Y-99820425D01*
X151044336Y-99849930D01*
X150968890Y-99863284D01*
X150894112Y-99859812D01*
X150834505Y-99841663D01*
X150773059Y-99802784D01*
X150729392Y-99751595D01*
X150702074Y-99685367D01*
X150689678Y-99601371D01*
X150688579Y-99562936D01*
X150692978Y-99474861D01*
X150693518Y-99472299D01*
X150819418Y-99472299D01*
X150822885Y-99480558D01*
X150837137Y-99485113D01*
X150866530Y-99487065D01*
X150915425Y-99487517D01*
X150934252Y-99487525D01*
X150991533Y-99486843D01*
X151027859Y-99484364D01*
X151047396Y-99479443D01*
X151054310Y-99471434D01*
X151054555Y-99468862D01*
X151046664Y-99448423D01*
X151026915Y-99419789D01*
X151018425Y-99409763D01*
X150986906Y-99381408D01*
X150954051Y-99370259D01*
X150936349Y-99369327D01*
X150888461Y-99380981D01*
X150848301Y-99412285D01*
X150822827Y-99457752D01*
X150822375Y-99459233D01*
X150819418Y-99472299D01*
X150693518Y-99472299D01*
X150707608Y-99405510D01*
X150733962Y-99350025D01*
X150766193Y-99310639D01*
X150825783Y-99267931D01*
X150895832Y-99245109D01*
X150970339Y-99243046D01*
X151043301Y-99262614D01*
G37*
X153438411Y-100195417D02*
X153491411Y-100208290D01*
X153506731Y-100215110D01*
X153536428Y-100232974D01*
X153559220Y-100253093D01*
X153576083Y-100278962D01*
X153587998Y-100314073D01*
X153595942Y-100361920D01*
X153600894Y-100425996D01*
X153603831Y-100509794D01*
X153604947Y-100565768D01*
X153609052Y-100807822D01*
X153538932Y-100807822D01*
X153496393Y-100806038D01*
X153474476Y-100799942D01*
X153468812Y-100789706D01*
X153465821Y-100778637D01*
X153452451Y-100780754D01*
X153434233Y-100789629D01*
X153388624Y-100803233D01*
X153330007Y-100806899D01*
X153268354Y-100800903D01*
X153213638Y-100785521D01*
X153208730Y-100783386D01*
X153158723Y-100748255D01*
X153125756Y-100699419D01*
X153110587Y-100642333D01*
X153111746Y-100621824D01*
X153235508Y-100621824D01*
X153246413Y-100649425D01*
X153278745Y-100669204D01*
X153330910Y-100679819D01*
X153358787Y-100681228D01*
X153405247Y-100677620D01*
X153436129Y-100663597D01*
X153443664Y-100656931D01*
X153464076Y-100620666D01*
X153468812Y-100587773D01*
X153468812Y-100543763D01*
X153407513Y-100543763D01*
X153336256Y-100547395D01*
X153286276Y-100558818D01*
X153254696Y-100578824D01*
X153247626Y-100587743D01*
X153235508Y-100621824D01*
X153111746Y-100621824D01*
X153113971Y-100582456D01*
X153136663Y-100525244D01*
X153167624Y-100486580D01*
X153186376Y-100469864D01*
X153204733Y-100458878D01*
X153228619Y-100452180D01*
X153263957Y-100448326D01*
X153316669Y-100445873D01*
X153337577Y-100445168D01*
X153468812Y-100440879D01*
X153468620Y-100401158D01*
X153463537Y-100359405D01*
X153445162Y-100334158D01*
X153408039Y-100318030D01*
X153407043Y-100317742D01*
X153354410Y-100311400D01*
X153302906Y-100319684D01*
X153264630Y-100339827D01*
X153249272Y-100349773D01*
X153232730Y-100348397D01*
X153207275Y-100333987D01*
X153192328Y-100323817D01*
X153163091Y-100302088D01*
X153144980Y-100285800D01*
X153142074Y-100281137D01*
X153154040Y-100257005D01*
X153189396Y-100228185D01*
X153204753Y-100218461D01*
X153248901Y-100201714D01*
X153308398Y-100192227D01*
X153374487Y-100190095D01*
X153438411Y-100195417D01*
G36*
X153438411Y-100195417D02*
G01*
X153491411Y-100208290D01*
X153506731Y-100215110D01*
X153536428Y-100232974D01*
X153559220Y-100253093D01*
X153576083Y-100278962D01*
X153587998Y-100314073D01*
X153595942Y-100361920D01*
X153600894Y-100425996D01*
X153603831Y-100509794D01*
X153604947Y-100565768D01*
X153609052Y-100807822D01*
X153538932Y-100807822D01*
X153496393Y-100806038D01*
X153474476Y-100799942D01*
X153468812Y-100789706D01*
X153465821Y-100778637D01*
X153452451Y-100780754D01*
X153434233Y-100789629D01*
X153388624Y-100803233D01*
X153330007Y-100806899D01*
X153268354Y-100800903D01*
X153213638Y-100785521D01*
X153208730Y-100783386D01*
X153158723Y-100748255D01*
X153125756Y-100699419D01*
X153110587Y-100642333D01*
X153111746Y-100621824D01*
X153235508Y-100621824D01*
X153246413Y-100649425D01*
X153278745Y-100669204D01*
X153330910Y-100679819D01*
X153358787Y-100681228D01*
X153405247Y-100677620D01*
X153436129Y-100663597D01*
X153443664Y-100656931D01*
X153464076Y-100620666D01*
X153468812Y-100587773D01*
X153468812Y-100543763D01*
X153407513Y-100543763D01*
X153336256Y-100547395D01*
X153286276Y-100558818D01*
X153254696Y-100578824D01*
X153247626Y-100587743D01*
X153235508Y-100621824D01*
X153111746Y-100621824D01*
X153113971Y-100582456D01*
X153136663Y-100525244D01*
X153167624Y-100486580D01*
X153186376Y-100469864D01*
X153204733Y-100458878D01*
X153228619Y-100452180D01*
X153263957Y-100448326D01*
X153316669Y-100445873D01*
X153337577Y-100445168D01*
X153468812Y-100440879D01*
X153468620Y-100401158D01*
X153463537Y-100359405D01*
X153445162Y-100334158D01*
X153408039Y-100318030D01*
X153407043Y-100317742D01*
X153354410Y-100311400D01*
X153302906Y-100319684D01*
X153264630Y-100339827D01*
X153249272Y-100349773D01*
X153232730Y-100348397D01*
X153207275Y-100333987D01*
X153192328Y-100323817D01*
X153163091Y-100302088D01*
X153144980Y-100285800D01*
X153142074Y-100281137D01*
X153154040Y-100257005D01*
X153189396Y-100228185D01*
X153204753Y-100218461D01*
X153248901Y-100201714D01*
X153308398Y-100192227D01*
X153374487Y-100190095D01*
X153438411Y-100195417D01*
G37*
X151015790Y-100196555D02*
X151074945Y-100212339D01*
X151119977Y-100240948D01*
X151151754Y-100278419D01*
X151161634Y-100294411D01*
X151168927Y-100311163D01*
X151174026Y-100332592D01*
X151177321Y-100362616D01*
X151179203Y-100405154D01*
X151180063Y-100464122D01*
X151180293Y-100543440D01*
X151180297Y-100564484D01*
X151180297Y-100807822D01*
X151119941Y-100807822D01*
X151081443Y-100805126D01*
X151052977Y-100798295D01*
X151045845Y-100794083D01*
X151026348Y-100786813D01*
X151006434Y-100794083D01*
X150973647Y-100803160D01*
X150926022Y-100806813D01*
X150873236Y-100805228D01*
X150824964Y-100798589D01*
X150796782Y-100790072D01*
X150742247Y-100755063D01*
X150708165Y-100706479D01*
X150692843Y-100641882D01*
X150692701Y-100640223D01*
X150694045Y-100611566D01*
X150815644Y-100611566D01*
X150826274Y-100644161D01*
X150843590Y-100662505D01*
X150878348Y-100676379D01*
X150924227Y-100681917D01*
X150971012Y-100679191D01*
X151008486Y-100668274D01*
X151018985Y-100661269D01*
X151037332Y-100628904D01*
X151041980Y-100592111D01*
X151041980Y-100543763D01*
X150972418Y-100543763D01*
X150906333Y-100548850D01*
X150856236Y-100563263D01*
X150825071Y-100585729D01*
X150815644Y-100611566D01*
X150694045Y-100611566D01*
X150696013Y-100569647D01*
X150719290Y-100513845D01*
X150763052Y-100471647D01*
X150769101Y-100467808D01*
X150795093Y-100455309D01*
X150827265Y-100447740D01*
X150872240Y-100444061D01*
X150925669Y-100443216D01*
X151041980Y-100443169D01*
X151041980Y-100394411D01*
X151037047Y-100356581D01*
X151024457Y-100331236D01*
X151022983Y-100329887D01*
X150994966Y-100318800D01*
X150952674Y-100314503D01*
X150905936Y-100316615D01*
X150864582Y-100324756D01*
X150840043Y-100336965D01*
X150826747Y-100346746D01*
X150812706Y-100348613D01*
X150793329Y-100340600D01*
X150764024Y-100320739D01*
X150720197Y-100287063D01*
X150716175Y-100283909D01*
X150718236Y-100272236D01*
X150735432Y-100252822D01*
X150761567Y-100231248D01*
X150790448Y-100213096D01*
X150799522Y-100208809D01*
X150832620Y-100200256D01*
X150881120Y-100194155D01*
X150935305Y-100191708D01*
X150937839Y-100191703D01*
X151015790Y-100196555D01*
G36*
X151015790Y-100196555D02*
G01*
X151074945Y-100212339D01*
X151119977Y-100240948D01*
X151151754Y-100278419D01*
X151161634Y-100294411D01*
X151168927Y-100311163D01*
X151174026Y-100332592D01*
X151177321Y-100362616D01*
X151179203Y-100405154D01*
X151180063Y-100464122D01*
X151180293Y-100543440D01*
X151180297Y-100564484D01*
X151180297Y-100807822D01*
X151119941Y-100807822D01*
X151081443Y-100805126D01*
X151052977Y-100798295D01*
X151045845Y-100794083D01*
X151026348Y-100786813D01*
X151006434Y-100794083D01*
X150973647Y-100803160D01*
X150926022Y-100806813D01*
X150873236Y-100805228D01*
X150824964Y-100798589D01*
X150796782Y-100790072D01*
X150742247Y-100755063D01*
X150708165Y-100706479D01*
X150692843Y-100641882D01*
X150692701Y-100640223D01*
X150694045Y-100611566D01*
X150815644Y-100611566D01*
X150826274Y-100644161D01*
X150843590Y-100662505D01*
X150878348Y-100676379D01*
X150924227Y-100681917D01*
X150971012Y-100679191D01*
X151008486Y-100668274D01*
X151018985Y-100661269D01*
X151037332Y-100628904D01*
X151041980Y-100592111D01*
X151041980Y-100543763D01*
X150972418Y-100543763D01*
X150906333Y-100548850D01*
X150856236Y-100563263D01*
X150825071Y-100585729D01*
X150815644Y-100611566D01*
X150694045Y-100611566D01*
X150696013Y-100569647D01*
X150719290Y-100513845D01*
X150763052Y-100471647D01*
X150769101Y-100467808D01*
X150795093Y-100455309D01*
X150827265Y-100447740D01*
X150872240Y-100444061D01*
X150925669Y-100443216D01*
X151041980Y-100443169D01*
X151041980Y-100394411D01*
X151037047Y-100356581D01*
X151024457Y-100331236D01*
X151022983Y-100329887D01*
X150994966Y-100318800D01*
X150952674Y-100314503D01*
X150905936Y-100316615D01*
X150864582Y-100324756D01*
X150840043Y-100336965D01*
X150826747Y-100346746D01*
X150812706Y-100348613D01*
X150793329Y-100340600D01*
X150764024Y-100320739D01*
X150720197Y-100287063D01*
X150716175Y-100283909D01*
X150718236Y-100272236D01*
X150735432Y-100252822D01*
X150761567Y-100231248D01*
X150790448Y-100213096D01*
X150799522Y-100208809D01*
X150832620Y-100200256D01*
X150881120Y-100194155D01*
X150935305Y-100191708D01*
X150937839Y-100191703D01*
X151015790Y-100196555D01*
G37*
X150491241Y-99259184D02*
X150517753Y-99272282D01*
X150550447Y-99295106D01*
X150574275Y-99319996D01*
X150590594Y-99351249D01*
X150600760Y-99393166D01*
X150606128Y-99450044D01*
X150608056Y-99526184D01*
X150608169Y-99558917D01*
X150607839Y-99630656D01*
X150606473Y-99681927D01*
X150603500Y-99717404D01*
X150598351Y-99741763D01*
X150590457Y-99759680D01*
X150582243Y-99771902D01*
X150529813Y-99823905D01*
X150468070Y-99855184D01*
X150401464Y-99864592D01*
X150334442Y-99850980D01*
X150313208Y-99841354D01*
X150262376Y-99814859D01*
X150262376Y-100230052D01*
X150299475Y-100210868D01*
X150348357Y-100196025D01*
X150408439Y-100192222D01*
X150468436Y-100199243D01*
X150513744Y-100215013D01*
X150551325Y-100245047D01*
X150583436Y-100288024D01*
X150585850Y-100292436D01*
X150596033Y-100313221D01*
X150603470Y-100334170D01*
X150608589Y-100359548D01*
X150611819Y-100393618D01*
X150613587Y-100440641D01*
X150614323Y-100504882D01*
X150614456Y-100577176D01*
X150614456Y-100807822D01*
X150476139Y-100807822D01*
X150476139Y-100382533D01*
X150437451Y-100349979D01*
X150397262Y-100323940D01*
X150359203Y-100319205D01*
X150320934Y-100331389D01*
X150300538Y-100343320D01*
X150285358Y-100360313D01*
X150274562Y-100385995D01*
X150267317Y-100423991D01*
X150262792Y-100477926D01*
X150260156Y-100551425D01*
X150259228Y-100600347D01*
X150256089Y-100801535D01*
X150190074Y-100805336D01*
X150124060Y-100809136D01*
X150124060Y-99560650D01*
X150262376Y-99560650D01*
X150265903Y-99630254D01*
X150277785Y-99678569D01*
X150299980Y-99708631D01*
X150334441Y-99723471D01*
X150369258Y-99726436D01*
X150408671Y-99723028D01*
X150434829Y-99709617D01*
X150451186Y-99691896D01*
X150464063Y-99672835D01*
X150471728Y-99651601D01*
X150475139Y-99621849D01*
X150475251Y-99577236D01*
X150474103Y-99539880D01*
X150471468Y-99483604D01*
X150467544Y-99446658D01*
X150460937Y-99423223D01*
X150450251Y-99407480D01*
X150440167Y-99398380D01*
X150398030Y-99378537D01*
X150348160Y-99375332D01*
X150319524Y-99382168D01*
X150291172Y-99406464D01*
X150272391Y-99453728D01*
X150263288Y-99523624D01*
X150262376Y-99560650D01*
X150124060Y-99560650D01*
X150124060Y-99248614D01*
X150193218Y-99248614D01*
X150234740Y-99250256D01*
X150256162Y-99256087D01*
X150262374Y-99267461D01*
X150262376Y-99267798D01*
X150265258Y-99278938D01*
X150277970Y-99277673D01*
X150303243Y-99265433D01*
X150362131Y-99246707D01*
X150428385Y-99244739D01*
X150491241Y-99259184D01*
G36*
X150491241Y-99259184D02*
G01*
X150517753Y-99272282D01*
X150550447Y-99295106D01*
X150574275Y-99319996D01*
X150590594Y-99351249D01*
X150600760Y-99393166D01*
X150606128Y-99450044D01*
X150608056Y-99526184D01*
X150608169Y-99558917D01*
X150607839Y-99630656D01*
X150606473Y-99681927D01*
X150603500Y-99717404D01*
X150598351Y-99741763D01*
X150590457Y-99759680D01*
X150582243Y-99771902D01*
X150529813Y-99823905D01*
X150468070Y-99855184D01*
X150401464Y-99864592D01*
X150334442Y-99850980D01*
X150313208Y-99841354D01*
X150262376Y-99814859D01*
X150262376Y-100230052D01*
X150299475Y-100210868D01*
X150348357Y-100196025D01*
X150408439Y-100192222D01*
X150468436Y-100199243D01*
X150513744Y-100215013D01*
X150551325Y-100245047D01*
X150583436Y-100288024D01*
X150585850Y-100292436D01*
X150596033Y-100313221D01*
X150603470Y-100334170D01*
X150608589Y-100359548D01*
X150611819Y-100393618D01*
X150613587Y-100440641D01*
X150614323Y-100504882D01*
X150614456Y-100577176D01*
X150614456Y-100807822D01*
X150476139Y-100807822D01*
X150476139Y-100382533D01*
X150437451Y-100349979D01*
X150397262Y-100323940D01*
X150359203Y-100319205D01*
X150320934Y-100331389D01*
X150300538Y-100343320D01*
X150285358Y-100360313D01*
X150274562Y-100385995D01*
X150267317Y-100423991D01*
X150262792Y-100477926D01*
X150260156Y-100551425D01*
X150259228Y-100600347D01*
X150256089Y-100801535D01*
X150190074Y-100805336D01*
X150124060Y-100809136D01*
X150124060Y-99560650D01*
X150262376Y-99560650D01*
X150265903Y-99630254D01*
X150277785Y-99678569D01*
X150299980Y-99708631D01*
X150334441Y-99723471D01*
X150369258Y-99726436D01*
X150408671Y-99723028D01*
X150434829Y-99709617D01*
X150451186Y-99691896D01*
X150464063Y-99672835D01*
X150471728Y-99651601D01*
X150475139Y-99621849D01*
X150475251Y-99577236D01*
X150474103Y-99539880D01*
X150471468Y-99483604D01*
X150467544Y-99446658D01*
X150460937Y-99423223D01*
X150450251Y-99407480D01*
X150440167Y-99398380D01*
X150398030Y-99378537D01*
X150348160Y-99375332D01*
X150319524Y-99382168D01*
X150291172Y-99406464D01*
X150272391Y-99453728D01*
X150263288Y-99523624D01*
X150262376Y-99560650D01*
X150124060Y-99560650D01*
X150124060Y-99248614D01*
X150193218Y-99248614D01*
X150234740Y-99250256D01*
X150256162Y-99256087D01*
X150262374Y-99267461D01*
X150262376Y-99267798D01*
X150265258Y-99278938D01*
X150277970Y-99277673D01*
X150303243Y-99265433D01*
X150362131Y-99246707D01*
X150428385Y-99244739D01*
X150491241Y-99259184D01*
G37*
X152776964Y-95080018D02*
X152833812Y-95381570D01*
X153253338Y-95554512D01*
X153504984Y-95383395D01*
X153575458Y-95335750D01*
X153639163Y-95293210D01*
X153693126Y-95257715D01*
X153734373Y-95231210D01*
X153759934Y-95215636D01*
X153766895Y-95212278D01*
X153779435Y-95220914D01*
X153806231Y-95244792D01*
X153844280Y-95280859D01*
X153890579Y-95326067D01*
X153942123Y-95377364D01*
X153995909Y-95431701D01*
X154048935Y-95486028D01*
X154098195Y-95537295D01*
X154140687Y-95582451D01*
X154173407Y-95618446D01*
X154193351Y-95642230D01*
X154198119Y-95650190D01*
X154191257Y-95664865D01*
X154172020Y-95697014D01*
X154142430Y-95743492D01*
X154104510Y-95801156D01*
X154060282Y-95866860D01*
X154034654Y-95904336D01*
X153987941Y-95972768D01*
X153946432Y-96034520D01*
X153912140Y-96086519D01*
X153887080Y-96125692D01*
X153873264Y-96148965D01*
X153871188Y-96153855D01*
X153875895Y-96167755D01*
X153888723Y-96200150D01*
X153907738Y-96246485D01*
X153931003Y-96302206D01*
X153956584Y-96362758D01*
X153982545Y-96423586D01*
X154006950Y-96480136D01*
X154027863Y-96527852D01*
X154043349Y-96562181D01*
X154051472Y-96578568D01*
X154051952Y-96579212D01*
X154064707Y-96582341D01*
X154098677Y-96589321D01*
X154150340Y-96599467D01*
X154216176Y-96612092D01*
X154292664Y-96626509D01*
X154337290Y-96634823D01*
X154419021Y-96650384D01*
X154492843Y-96665192D01*
X154555021Y-96678436D01*
X154601822Y-96689305D01*
X154629509Y-96696989D01*
X154635074Y-96699427D01*
X154640526Y-96715930D01*
X154644924Y-96753200D01*
X154648272Y-96806880D01*
X154650574Y-96872612D01*
X154651832Y-96946037D01*
X154652048Y-97022796D01*
X154651227Y-97098532D01*
X154649371Y-97168886D01*
X154646482Y-97229500D01*
X154642565Y-97276016D01*
X154637622Y-97304075D01*
X154634657Y-97309916D01*
X154616934Y-97316917D01*
X154579381Y-97326927D01*
X154526964Y-97338769D01*
X154464652Y-97351267D01*
X154442900Y-97355310D01*
X154338024Y-97374520D01*
X154255180Y-97389991D01*
X154191630Y-97402337D01*
X154144637Y-97412173D01*
X154111463Y-97420114D01*
X154089371Y-97426776D01*
X154075624Y-97432773D01*
X154067484Y-97438719D01*
X154066345Y-97439894D01*
X154054977Y-97458826D01*
X154037635Y-97495669D01*
X154016050Y-97545913D01*
X153991954Y-97605046D01*
X153967079Y-97668556D01*
X153943157Y-97731932D01*
X153921919Y-97790662D01*
X153905097Y-97840235D01*
X153894422Y-97876139D01*
X153891627Y-97893862D01*
X153891860Y-97894483D01*
X153901331Y-97908970D01*
X153922818Y-97940844D01*
X153954063Y-97986789D01*
X153992807Y-98043485D01*
X154036793Y-98107617D01*
X154049319Y-98125842D01*
X154093984Y-98191914D01*
X154133288Y-98252200D01*
X154165088Y-98303235D01*
X154187245Y-98341560D01*
X154197617Y-98363711D01*
X154198119Y-98366432D01*
X154189405Y-98380736D01*
X154165325Y-98409072D01*
X154128976Y-98448396D01*
X154083453Y-98495661D01*
X154031852Y-98547823D01*
X153977267Y-98601835D01*
X153922794Y-98654653D01*
X153871529Y-98703231D01*
X153826567Y-98744523D01*
X153791004Y-98775485D01*
X153767935Y-98793070D01*
X153761554Y-98795941D01*
X153746699Y-98789178D01*
X153716286Y-98770939D01*
X153675268Y-98744297D01*
X153643709Y-98722852D01*
X153586525Y-98683503D01*
X153518806Y-98637171D01*
X153450880Y-98590913D01*
X153414361Y-98566155D01*
X153290752Y-98482547D01*
X153186991Y-98538650D01*
X153139720Y-98563228D01*
X153099523Y-98582331D01*
X153072326Y-98593227D01*
X153065402Y-98594743D01*
X153057077Y-98583549D01*
X153040654Y-98551917D01*
X153017357Y-98502765D01*
X152988414Y-98439010D01*
X152955050Y-98363571D01*
X152918491Y-98279364D01*
X152879964Y-98189308D01*
X152840694Y-98096321D01*
X152801908Y-98003320D01*
X152764830Y-97913223D01*
X152730689Y-97828948D01*
X152700708Y-97753413D01*
X152676116Y-97689534D01*
X152658136Y-97640231D01*
X152647997Y-97608421D01*
X152646366Y-97597496D01*
X152659291Y-97583561D01*
X152687589Y-97560940D01*
X152725346Y-97534333D01*
X152728515Y-97532228D01*
X152826100Y-97454114D01*
X152904786Y-97362982D01*
X152963891Y-97261745D01*
X153002732Y-97153318D01*
X153020628Y-97040614D01*
X153016897Y-96926548D01*
X152990857Y-96814034D01*
X152941825Y-96705985D01*
X152927400Y-96682345D01*
X152852369Y-96586887D01*
X152763730Y-96510232D01*
X152664549Y-96452780D01*
X152557895Y-96414929D01*
X152446836Y-96397078D01*
X152334439Y-96399625D01*
X152223773Y-96422970D01*
X152117906Y-96467510D01*
X152019905Y-96533645D01*
X151989590Y-96560487D01*
X151912438Y-96644512D01*
X151856218Y-96732966D01*
X151817653Y-96832115D01*
X151796174Y-96930303D01*
X151790872Y-97040697D01*
X151808552Y-97151640D01*
X151847419Y-97259381D01*
X151905677Y-97360169D01*
X151981531Y-97450256D01*
X152073183Y-97525892D01*
X152085228Y-97533864D01*
X152123389Y-97559974D01*
X152152399Y-97582595D01*
X152166268Y-97597039D01*
X152166469Y-97597496D01*
X152163492Y-97613121D01*
X152151689Y-97648582D01*
X152132286Y-97700962D01*
X152106512Y-97767345D01*
X152075591Y-97844814D01*
X152040751Y-97930450D01*
X152003217Y-98021337D01*
X151964217Y-98114559D01*
X151924977Y-98207197D01*
X151886724Y-98296335D01*
X151850683Y-98379055D01*
X151818083Y-98452441D01*
X151790148Y-98513575D01*
X151768105Y-98559541D01*
X151753182Y-98587421D01*
X151747172Y-98594743D01*
X151728809Y-98589041D01*
X151694448Y-98573749D01*
X151650016Y-98551599D01*
X151625583Y-98538650D01*
X151521822Y-98482547D01*
X151398213Y-98566155D01*
X151335114Y-98608987D01*
X151266030Y-98656122D01*
X151201293Y-98700503D01*
X151168866Y-98722852D01*
X151123259Y-98753477D01*
X151084640Y-98777747D01*
X151058048Y-98792587D01*
X151049410Y-98795724D01*
X151036839Y-98787261D01*
X151009016Y-98763636D01*
X150968639Y-98727302D01*
X150918405Y-98680711D01*
X150861012Y-98626317D01*
X150824714Y-98591392D01*
X150761210Y-98528996D01*
X150706327Y-98473188D01*
X150662286Y-98426354D01*
X150631305Y-98390882D01*
X150615602Y-98369161D01*
X150614095Y-98364752D01*
X150621086Y-98347985D01*
X150640406Y-98314082D01*
X150669909Y-98266476D01*
X150707455Y-98208599D01*
X150750900Y-98143884D01*
X150763255Y-98125842D01*
X150808273Y-98060267D01*
X150848660Y-98001228D01*
X150882160Y-97952042D01*
X150906514Y-97916028D01*
X150919464Y-97896502D01*
X150920715Y-97894483D01*
X150918844Y-97878922D01*
X150908913Y-97844709D01*
X150892653Y-97796355D01*
X150871795Y-97738371D01*
X150848073Y-97675270D01*
X150823216Y-97611563D01*
X150798958Y-97551761D01*
X150777029Y-97500376D01*
X150759162Y-97461919D01*
X150747087Y-97440902D01*
X150746229Y-97439894D01*
X150738846Y-97433888D01*
X150726375Y-97427948D01*
X150706080Y-97421460D01*
X150675222Y-97413809D01*
X150631066Y-97404380D01*
X150570874Y-97392559D01*
X150491907Y-97377729D01*
X150391430Y-97359277D01*
X150369675Y-97355310D01*
X150305198Y-97342853D01*
X150248989Y-97330666D01*
X150206013Y-97319926D01*
X150181240Y-97311809D01*
X150177918Y-97309916D01*
X150172444Y-97293138D01*
X150167994Y-97255645D01*
X150164572Y-97201794D01*
X150162181Y-97135944D01*
X150160823Y-97062453D01*
X150160501Y-96985680D01*
X150161219Y-96909983D01*
X150162979Y-96839720D01*
X150165784Y-96779250D01*
X150169638Y-96732930D01*
X150174543Y-96705119D01*
X150177500Y-96699427D01*
X150193963Y-96693686D01*
X150231449Y-96684345D01*
X150286225Y-96672215D01*
X150354555Y-96658107D01*
X150432706Y-96642830D01*
X150475284Y-96634823D01*
X150556071Y-96619721D01*
X150628113Y-96606040D01*
X150687889Y-96594467D01*
X150731879Y-96585687D01*
X150756561Y-96580387D01*
X150760623Y-96579212D01*
X150767489Y-96565965D01*
X150782002Y-96534057D01*
X150802229Y-96488047D01*
X150826234Y-96432492D01*
X150852082Y-96371953D01*
X150877840Y-96310986D01*
X150901573Y-96254151D01*
X150921346Y-96206006D01*
X150935224Y-96171110D01*
X150941274Y-96154021D01*
X150941386Y-96153274D01*
X150934528Y-96139793D01*
X150915302Y-96108770D01*
X150885728Y-96063289D01*
X150847827Y-96006432D01*
X150803620Y-95941283D01*
X150777921Y-95903862D01*
X150731093Y-95835247D01*
X150689501Y-95772952D01*
X150655175Y-95720129D01*
X150630143Y-95679927D01*
X150616435Y-95655500D01*
X150614456Y-95650024D01*
X150622966Y-95637278D01*
X150646493Y-95610063D01*
X150682032Y-95571428D01*
X150726577Y-95524423D01*
X150777123Y-95472095D01*
X150830664Y-95417495D01*
X150884195Y-95363670D01*
X150934711Y-95313670D01*
X150979206Y-95270543D01*
X151014675Y-95237339D01*
X151038113Y-95217106D01*
X151045954Y-95212278D01*
X151058720Y-95219067D01*
X151089256Y-95238142D01*
X151134590Y-95267561D01*
X151191756Y-95305381D01*
X151257784Y-95349661D01*
X151307590Y-95383395D01*
X151559236Y-95554512D01*
X151768999Y-95468041D01*
X151978763Y-95381570D01*
X152035611Y-95080018D01*
X152092460Y-94778466D01*
X152720115Y-94778466D01*
X152776964Y-95080018D01*
G36*
X152776964Y-95080018D02*
G01*
X152833812Y-95381570D01*
X153253338Y-95554512D01*
X153504984Y-95383395D01*
X153575458Y-95335750D01*
X153639163Y-95293210D01*
X153693126Y-95257715D01*
X153734373Y-95231210D01*
X153759934Y-95215636D01*
X153766895Y-95212278D01*
X153779435Y-95220914D01*
X153806231Y-95244792D01*
X153844280Y-95280859D01*
X153890579Y-95326067D01*
X153942123Y-95377364D01*
X153995909Y-95431701D01*
X154048935Y-95486028D01*
X154098195Y-95537295D01*
X154140687Y-95582451D01*
X154173407Y-95618446D01*
X154193351Y-95642230D01*
X154198119Y-95650190D01*
X154191257Y-95664865D01*
X154172020Y-95697014D01*
X154142430Y-95743492D01*
X154104510Y-95801156D01*
X154060282Y-95866860D01*
X154034654Y-95904336D01*
X153987941Y-95972768D01*
X153946432Y-96034520D01*
X153912140Y-96086519D01*
X153887080Y-96125692D01*
X153873264Y-96148965D01*
X153871188Y-96153855D01*
X153875895Y-96167755D01*
X153888723Y-96200150D01*
X153907738Y-96246485D01*
X153931003Y-96302206D01*
X153956584Y-96362758D01*
X153982545Y-96423586D01*
X154006950Y-96480136D01*
X154027863Y-96527852D01*
X154043349Y-96562181D01*
X154051472Y-96578568D01*
X154051952Y-96579212D01*
X154064707Y-96582341D01*
X154098677Y-96589321D01*
X154150340Y-96599467D01*
X154216176Y-96612092D01*
X154292664Y-96626509D01*
X154337290Y-96634823D01*
X154419021Y-96650384D01*
X154492843Y-96665192D01*
X154555021Y-96678436D01*
X154601822Y-96689305D01*
X154629509Y-96696989D01*
X154635074Y-96699427D01*
X154640526Y-96715930D01*
X154644924Y-96753200D01*
X154648272Y-96806880D01*
X154650574Y-96872612D01*
X154651832Y-96946037D01*
X154652048Y-97022796D01*
X154651227Y-97098532D01*
X154649371Y-97168886D01*
X154646482Y-97229500D01*
X154642565Y-97276016D01*
X154637622Y-97304075D01*
X154634657Y-97309916D01*
X154616934Y-97316917D01*
X154579381Y-97326927D01*
X154526964Y-97338769D01*
X154464652Y-97351267D01*
X154442900Y-97355310D01*
X154338024Y-97374520D01*
X154255180Y-97389991D01*
X154191630Y-97402337D01*
X154144637Y-97412173D01*
X154111463Y-97420114D01*
X154089371Y-97426776D01*
X154075624Y-97432773D01*
X154067484Y-97438719D01*
X154066345Y-97439894D01*
X154054977Y-97458826D01*
X154037635Y-97495669D01*
X154016050Y-97545913D01*
X153991954Y-97605046D01*
X153967079Y-97668556D01*
X153943157Y-97731932D01*
X153921919Y-97790662D01*
X153905097Y-97840235D01*
X153894422Y-97876139D01*
X153891627Y-97893862D01*
X153891860Y-97894483D01*
X153901331Y-97908970D01*
X153922818Y-97940844D01*
X153954063Y-97986789D01*
X153992807Y-98043485D01*
X154036793Y-98107617D01*
X154049319Y-98125842D01*
X154093984Y-98191914D01*
X154133288Y-98252200D01*
X154165088Y-98303235D01*
X154187245Y-98341560D01*
X154197617Y-98363711D01*
X154198119Y-98366432D01*
X154189405Y-98380736D01*
X154165325Y-98409072D01*
X154128976Y-98448396D01*
X154083453Y-98495661D01*
X154031852Y-98547823D01*
X153977267Y-98601835D01*
X153922794Y-98654653D01*
X153871529Y-98703231D01*
X153826567Y-98744523D01*
X153791004Y-98775485D01*
X153767935Y-98793070D01*
X153761554Y-98795941D01*
X153746699Y-98789178D01*
X153716286Y-98770939D01*
X153675268Y-98744297D01*
X153643709Y-98722852D01*
X153586525Y-98683503D01*
X153518806Y-98637171D01*
X153450880Y-98590913D01*
X153414361Y-98566155D01*
X153290752Y-98482547D01*
X153186991Y-98538650D01*
X153139720Y-98563228D01*
X153099523Y-98582331D01*
X153072326Y-98593227D01*
X153065402Y-98594743D01*
X153057077Y-98583549D01*
X153040654Y-98551917D01*
X153017357Y-98502765D01*
X152988414Y-98439010D01*
X152955050Y-98363571D01*
X152918491Y-98279364D01*
X152879964Y-98189308D01*
X152840694Y-98096321D01*
X152801908Y-98003320D01*
X152764830Y-97913223D01*
X152730689Y-97828948D01*
X152700708Y-97753413D01*
X152676116Y-97689534D01*
X152658136Y-97640231D01*
X152647997Y-97608421D01*
X152646366Y-97597496D01*
X152659291Y-97583561D01*
X152687589Y-97560940D01*
X152725346Y-97534333D01*
X152728515Y-97532228D01*
X152826100Y-97454114D01*
X152904786Y-97362982D01*
X152963891Y-97261745D01*
X153002732Y-97153318D01*
X153020628Y-97040614D01*
X153016897Y-96926548D01*
X152990857Y-96814034D01*
X152941825Y-96705985D01*
X152927400Y-96682345D01*
X152852369Y-96586887D01*
X152763730Y-96510232D01*
X152664549Y-96452780D01*
X152557895Y-96414929D01*
X152446836Y-96397078D01*
X152334439Y-96399625D01*
X152223773Y-96422970D01*
X152117906Y-96467510D01*
X152019905Y-96533645D01*
X151989590Y-96560487D01*
X151912438Y-96644512D01*
X151856218Y-96732966D01*
X151817653Y-96832115D01*
X151796174Y-96930303D01*
X151790872Y-97040697D01*
X151808552Y-97151640D01*
X151847419Y-97259381D01*
X151905677Y-97360169D01*
X151981531Y-97450256D01*
X152073183Y-97525892D01*
X152085228Y-97533864D01*
X152123389Y-97559974D01*
X152152399Y-97582595D01*
X152166268Y-97597039D01*
X152166469Y-97597496D01*
X152163492Y-97613121D01*
X152151689Y-97648582D01*
X152132286Y-97700962D01*
X152106512Y-97767345D01*
X152075591Y-97844814D01*
X152040751Y-97930450D01*
X152003217Y-98021337D01*
X151964217Y-98114559D01*
X151924977Y-98207197D01*
X151886724Y-98296335D01*
X151850683Y-98379055D01*
X151818083Y-98452441D01*
X151790148Y-98513575D01*
X151768105Y-98559541D01*
X151753182Y-98587421D01*
X151747172Y-98594743D01*
X151728809Y-98589041D01*
X151694448Y-98573749D01*
X151650016Y-98551599D01*
X151625583Y-98538650D01*
X151521822Y-98482547D01*
X151398213Y-98566155D01*
X151335114Y-98608987D01*
X151266030Y-98656122D01*
X151201293Y-98700503D01*
X151168866Y-98722852D01*
X151123259Y-98753477D01*
X151084640Y-98777747D01*
X151058048Y-98792587D01*
X151049410Y-98795724D01*
X151036839Y-98787261D01*
X151009016Y-98763636D01*
X150968639Y-98727302D01*
X150918405Y-98680711D01*
X150861012Y-98626317D01*
X150824714Y-98591392D01*
X150761210Y-98528996D01*
X150706327Y-98473188D01*
X150662286Y-98426354D01*
X150631305Y-98390882D01*
X150615602Y-98369161D01*
X150614095Y-98364752D01*
X150621086Y-98347985D01*
X150640406Y-98314082D01*
X150669909Y-98266476D01*
X150707455Y-98208599D01*
X150750900Y-98143884D01*
X150763255Y-98125842D01*
X150808273Y-98060267D01*
X150848660Y-98001228D01*
X150882160Y-97952042D01*
X150906514Y-97916028D01*
X150919464Y-97896502D01*
X150920715Y-97894483D01*
X150918844Y-97878922D01*
X150908913Y-97844709D01*
X150892653Y-97796355D01*
X150871795Y-97738371D01*
X150848073Y-97675270D01*
X150823216Y-97611563D01*
X150798958Y-97551761D01*
X150777029Y-97500376D01*
X150759162Y-97461919D01*
X150747087Y-97440902D01*
X150746229Y-97439894D01*
X150738846Y-97433888D01*
X150726375Y-97427948D01*
X150706080Y-97421460D01*
X150675222Y-97413809D01*
X150631066Y-97404380D01*
X150570874Y-97392559D01*
X150491907Y-97377729D01*
X150391430Y-97359277D01*
X150369675Y-97355310D01*
X150305198Y-97342853D01*
X150248989Y-97330666D01*
X150206013Y-97319926D01*
X150181240Y-97311809D01*
X150177918Y-97309916D01*
X150172444Y-97293138D01*
X150167994Y-97255645D01*
X150164572Y-97201794D01*
X150162181Y-97135944D01*
X150160823Y-97062453D01*
X150160501Y-96985680D01*
X150161219Y-96909983D01*
X150162979Y-96839720D01*
X150165784Y-96779250D01*
X150169638Y-96732930D01*
X150174543Y-96705119D01*
X150177500Y-96699427D01*
X150193963Y-96693686D01*
X150231449Y-96684345D01*
X150286225Y-96672215D01*
X150354555Y-96658107D01*
X150432706Y-96642830D01*
X150475284Y-96634823D01*
X150556071Y-96619721D01*
X150628113Y-96606040D01*
X150687889Y-96594467D01*
X150731879Y-96585687D01*
X150756561Y-96580387D01*
X150760623Y-96579212D01*
X150767489Y-96565965D01*
X150782002Y-96534057D01*
X150802229Y-96488047D01*
X150826234Y-96432492D01*
X150852082Y-96371953D01*
X150877840Y-96310986D01*
X150901573Y-96254151D01*
X150921346Y-96206006D01*
X150935224Y-96171110D01*
X150941274Y-96154021D01*
X150941386Y-96153274D01*
X150934528Y-96139793D01*
X150915302Y-96108770D01*
X150885728Y-96063289D01*
X150847827Y-96006432D01*
X150803620Y-95941283D01*
X150777921Y-95903862D01*
X150731093Y-95835247D01*
X150689501Y-95772952D01*
X150655175Y-95720129D01*
X150630143Y-95679927D01*
X150616435Y-95655500D01*
X150614456Y-95650024D01*
X150622966Y-95637278D01*
X150646493Y-95610063D01*
X150682032Y-95571428D01*
X150726577Y-95524423D01*
X150777123Y-95472095D01*
X150830664Y-95417495D01*
X150884195Y-95363670D01*
X150934711Y-95313670D01*
X150979206Y-95270543D01*
X151014675Y-95237339D01*
X151038113Y-95217106D01*
X151045954Y-95212278D01*
X151058720Y-95219067D01*
X151089256Y-95238142D01*
X151134590Y-95267561D01*
X151191756Y-95305381D01*
X151257784Y-95349661D01*
X151307590Y-95383395D01*
X151559236Y-95554512D01*
X151768999Y-95468041D01*
X151978763Y-95381570D01*
X152035611Y-95080018D01*
X152092460Y-94778466D01*
X152720115Y-94778466D01*
X152776964Y-95080018D01*
G37*
%TD*%
%LPC*%
D14*
%TO.C,PIR_Sensor1*%
X152400000Y-106680000D03*
D15*
X149860000Y-106680000D03*
X147320000Y-106680000D03*
%TD*%
D14*
%TO.C,GY-87_Sensor1*%
X134620000Y-88900000D03*
D15*
X134620000Y-86360000D03*
X134620000Y-83820000D03*
X134620000Y-81280000D03*
X134620000Y-78740000D03*
X134620000Y-76200000D03*
X134620000Y-73660000D03*
X134620000Y-71120000D03*
%TD*%
D16*
%TO.C,REF1*%
X132500000Y-60000000D03*
%TD*%
D14*
%TO.C,LTE_Modem1*%
X147320000Y-60960000D03*
D15*
X144780000Y-60960000D03*
X142240000Y-60960000D03*
X139700000Y-60960000D03*
%TD*%
D14*
%TO.C,Switch_Module1*%
X142240000Y-114300000D03*
D15*
X139700000Y-114300000D03*
%TD*%
D16*
%TO.C,REF3*%
X167500000Y-115000000D03*
%TD*%
D14*
%TO.C,BME280_Sensor1*%
X134620000Y-104140000D03*
D15*
X134620000Y-101600000D03*
X134620000Y-99060000D03*
X134620000Y-96520000D03*
%TD*%
D16*
%TO.C,REF4*%
X132500000Y-115000000D03*
%TD*%
D14*
%TO.C,RaspberryPi_USB1*%
X154940000Y-60950000D03*
D15*
X152400000Y-60950000D03*
%TD*%
D14*
%TO.C,RaspberryPi_GPIOs1*%
X162560000Y-111760000D03*
D15*
X160020000Y-111760000D03*
X162560000Y-109220000D03*
X160020000Y-109220000D03*
X162560000Y-106680000D03*
X160020000Y-106680000D03*
X162560000Y-104140000D03*
X160020000Y-104140000D03*
X162560000Y-101600000D03*
X160020000Y-101600000D03*
X162560000Y-99060000D03*
X160020000Y-99060000D03*
X162560000Y-96520000D03*
X160020000Y-96520000D03*
X162560000Y-93980000D03*
X160020000Y-93980000D03*
X162560000Y-91440000D03*
X160020000Y-91440000D03*
X162560000Y-88900000D03*
X160020000Y-88900000D03*
X162560000Y-86360000D03*
X160020000Y-86360000D03*
X162560000Y-83820000D03*
X160020000Y-83820000D03*
X162560000Y-81280000D03*
X160020000Y-81280000D03*
X162560000Y-78740000D03*
X160020000Y-78740000D03*
X162560000Y-76200000D03*
X160020000Y-76200000D03*
X162560000Y-73660000D03*
X160020000Y-73660000D03*
X162560000Y-71120000D03*
X160020000Y-71120000D03*
X162560000Y-68580000D03*
X160020000Y-68580000D03*
X162560000Y-66040000D03*
X160020000Y-66040000D03*
X162560000Y-63500000D03*
X160020000Y-63500000D03*
%TD*%
D14*
%TO.C,Powerbank_Power1*%
X152400000Y-114300000D03*
D15*
X149860000Y-114300000D03*
%TD*%
D16*
%TO.C,REF2*%
X167500000Y-60000000D03*
%TD*%
%LPD*%
M02*
