<?xml version="1.0" encoding="UTF-8"?>
<svg id="Ebene_1" data-name="Ebene 1" xmlns="http://www.w3.org/2000/svg" xmlns:xlink="http://www.w3.org/1999/xlink" viewBox="0 0 902 712">
  <defs>
    <style>
      .cls-1 {
        stroke-width: 18px;
      }

      .cls-1, .cls-2 {
        fill: none;
        stroke: #000;
        stroke-miterlimit: 10;
      }

      .cls-3 {
        fill: url(#Unbenannter_Verlauf_27);
      }

      .cls-2 {
        stroke-width: 20px;
      }

      .cls-4 {
        fill: #f15a24;
      }
    </style>
    <radialGradient id="Unbenannter_Verlauf_27" data-name="Unbenannter Verlauf 27" cx="571.97" cy="547.51" fx="359.75" fy="547.51" r="212.26" gradientTransform="translate(-296.55 99.46) rotate(-26.89) scale(1 1.45)" gradientUnits="userSpaceOnUse">
      <stop offset=".46" stop-color="#f15a24"/>
      <stop offset=".67" stop-color="#f15a24"/>
      <stop offset=".79" stop-color="#fff"/>
    </radialGradient>
  </defs>
  <path d="M486.82,201.33c-.34,18.14-24.56,12.41-37.24,13.05-40.12,2.81-69.42,46.56-39,76,8.48,9.05,10.22,10.66,17.46,15.25,9.62,2.31,16.16,12.39,7.49,20.1-4.12,3.27-7.39,5.15-10.44,7-94.76,59.67-179.14-71.76-88.51-133.35-9.52,1.44-20.32,3.63-32,7-6.69,1.93-19.52,5.94-35,13-10.73,4.9-20.42,10.21-29.06,15.59-14.01,7.59-21.99,14.88-51.94,30.41-24.76,12.85-25.62,15.76-26,18-1.29,7.57,9.04,12.79,31,33,13.94,12.83,11.32,12.15,26,26,13.78,13.01,29.41,27.75,47,39,13.89,8.88,37.37,20.93,72,26,10.83,1.47,24.89,2.2,41,0,8.63-1.18,16.34-3,23-5,21.67-8.7,27.29-9.33,28-8,1.37,2.58-13.89,15.67-32.71,22.56-3.04,1.11-14.44,5.01-37.7,5.38-75.18,1.2-121.16-33.97-182.59-83.94-25.41-22.81-68.81-35.02-104-48-1.56-5.92,25.98-15.46,63-36,81.05-43.97,128.22-104.4,227-110,40.74-3.02,105.93,3.16,123.24,56.95Z"/>
  <g id="Kopf">
    <path class="cls-4" d="M445.92,292.04c3.12,2.38,8.2,4.44,11.31,4.58s14.45,1.14,18.33,1.94,11.32,1.45,16.53,1.45h15.34c3.22,0,8.67.56,12.09,1.24s9.96,1.62,14.52,2.07,11.18,1.91,14.71,3.24c3.53,1.32,15.09,6.16,17.84,7.81s12.7,8.4,16,11.33,14.4,14.47,17.33,19.13l6.34,10.08c2.93,4.65,6.08,11.16,6.99,14.46.92,3.3,3.63,14.4,4,17.33.37,2.93,1.03,14.12.67,18.33-.37,4.22-2.31,19.73-3.5,25.1l-9.66,43.48c-1.19,5.37-.71,5.5,1.06.3l20.53-60.07c1.78-5.2,3.79-13.93,4.47-19.39,0,0,1.43-11.41,2.76-22.08,1-10.33,2.04-21.05,2.04-21.05.53-5.47.81-13.85.63-18.62-.18-4.77-1.71-21.13-2.99-25.77-1.28-4.64-5.85-21.22-7.32-26.52l-1.32-4.78c-1.46-5.3-4.56-13.72-6.89-18.7l-3.16-6.76c-2.33-4.98-6.3-13.06-8.83-17.94,0,0-2.57-4.95-6.16-11.87-4.67-7.33-8.63-13.56-8.63-13.56-2.95-4.64-8.22-11.92-11.7-16.18,0,0-5.67-6.93-11.67-14.26-4.67-4.67-6.93-6.93-6.93-6.93-3.89-3.89-9.47-8.57-12.4-10.4-2.93-1.83-11.27-6.82-12-7s-1.92,1.13-1,3.33c.92,2.2,3.78,10.55,4.33,13.67s2.3,15.53,2.67,20.67l.33,4.67.33,3.67c.37,4.03.52,9.13.33,11.33-.18,2.2-2.32,8.6-4.33,9.33s-10.93,2.67-15.33,2.67h-4l-3.48.22c-3.83.24-8.69,1.09-10.81,1.89s-9.7,5.77-12.13,9.29l-1.58,2.6c-1.11,1.82-3.43,5.74-6,11l-1.68,3.44c-1.28,3.06-3.54,6.16-5.03,6.89s-7.04,4.01-9.03,5.66-9.81,5.71-12.93,5.34-12.53-.88-14-.33-5.78,4.1-6.33,6.67,6.22,15.62,9.33,18Z"/>
    <path class="cls-1" d="M445.92,292.04c3.12,2.38,8.2,4.44,11.31,4.58s14.45,1.14,18.33,1.94,11.32,1.45,16.53,1.45h15.34c3.22,0,8.67.56,12.09,1.24s9.96,1.62,14.52,2.07,11.18,1.91,14.71,3.24c3.53,1.32,15.09,6.16,17.84,7.81s12.7,8.4,16,11.33,14.4,14.47,17.33,19.13l6.34,10.08c2.93,4.65,6.08,11.16,6.99,14.46.92,3.3,3.63,14.4,4,17.33.37,2.93,1.03,14.12.67,18.33-.37,4.22-2.31,19.73-3.5,25.1l-9.66,43.48c-1.19,5.37-.71,5.5,1.06.3l20.53-60.07c1.78-5.2,3.79-13.93,4.47-19.39,0,0,1.43-11.41,2.76-22.08,1-10.33,2.04-21.05,2.04-21.05.53-5.47.81-13.85.63-18.62-.18-4.77-1.71-21.13-2.99-25.77-1.28-4.64-5.85-21.22-7.32-26.52l-1.32-4.78c-1.46-5.3-4.56-13.72-6.89-18.7l-3.16-6.76c-2.33-4.98-6.3-13.06-8.83-17.94,0,0-2.57-4.95-6.16-11.87-4.67-7.33-8.63-13.56-8.63-13.56-2.95-4.64-8.22-11.92-11.7-16.18,0,0-5.67-6.93-11.67-14.26-4.67-4.67-6.93-6.93-6.93-6.93-3.89-3.89-9.47-8.57-12.4-10.4-2.93-1.83-11.27-6.82-12-7s-1.92,1.13-1,3.33c.92,2.2,3.78,10.55,4.33,13.67s2.3,15.53,2.67,20.67l.33,4.67.33,3.67c.37,4.03.52,9.13.33,11.33-.18,2.2-2.32,8.6-4.33,9.33s-10.93,2.67-15.33,2.67h-4l-3.48.22c-3.83.24-8.69,1.09-10.81,1.89s-9.7,5.77-12.13,9.29l-1.58,2.6c-1.11,1.82-3.43,5.74-6,11l-1.68,3.44c-1.28,3.06-3.54,6.16-5.03,6.89s-7.04,4.01-9.03,5.66-9.81,5.71-12.93,5.34-12.53-.88-14-.33-5.78,4.1-6.33,6.67,6.22,15.62,9.33,18Z"/>
  </g>
  <path id="Auge" d="M514.16,253.4c-3.75,3.9-6.5,6.79-5.8,8.91,2.12,6.4,35.98,6.32,40.59-5.8,1.16-3.06.38-6.65-1.27-8.91-4.4-6.04-16.14-4.28-22.49-1.84-5.73,2.2-9.33,5.87-11.03,7.64Z"/>
  <g>
    <path class="cls-3" d="M456.86,412.36c-3.22,2.47-9.04,7.68-12.92,11.58l-11.3,11.36c-3.88,3.9-7.66,10.84-8.39,15.42s-.87,20.42,1.33,25,12.05,18.62,17.01,21.01l10.99,5.31c4.95,2.39,13.5,4.17,19,3.96l31.02-1.22c5.5-.22,14.36-1.46,19.7-2.77l33.58-8.24c5.34-1.31,13.94-3.94,19.1-5.83,0,0,23.53-8.65,40.61-15.55,21.04-8.49,50.88-21.9,50.88-21.9,5.02-2.25,13.02-6.35,17.78-9.1l53.68-31c4.76-2.75,7.51-.65,6.11,4.67l-8.89,33.66c-1.4,5.32-4.4,13.77-6.67,18.78l-14.78,32.77c-2.26,5.01-6.51,12.92-9.45,17.57l-13.32,21.09c-2.94,4.65-8.66,11.49-12.72,15.2l-20.24,18.5c-4.06,3.71-11.25,9.05-15.98,11.86l-19.81,11.78c-4.73,2.81-12.86,6.53-18.08,8.27l-11.03,3.68c-5.22,1.74-13.92,3.92-19.35,4.84l-29.28,4.98c-5.42.92-14.36,1.84-19.85,2.05l-25.01.92c-5.5.2-14.45-.26-19.89-1.03l-23.2-3.28c-5.45-.77-14.2-2.73-19.45-4.36l-12.9-4c-5.25-1.63-13.08-5.76-17.39-9.18l-13.33-10.57c-4.31-3.42-10.31-9.97-13.33-14.57l-12.02-18.29c-3.02-4.6-6.39-11.66-7.49-15.69s-3.69-19.16-3.31-24.64c0,0,.55-7.94,3.31-19.02,3.45-13.83,8.54-24.05,8.54-24.05,2.45-4.92,7.78-11.99,11.84-15.7l20.24-18.5c4.06-3.71,11.44-8.69,16.4-11.07l13.84-6.63c4.96-2.38,13.09-6.23,18.06-8.56s9.59-1.97,6.36.5Z"/>
    <path class="cls-2" d="M456.86,412.36c-3.22,2.47-9.04,7.68-12.92,11.58l-11.3,11.36c-3.88,3.9-7.66,10.84-8.39,15.42s-.87,20.42,1.33,25,12.05,18.62,17.01,21.01l10.99,5.31c4.95,2.39,13.5,4.17,19,3.96l31.02-1.22c5.5-.22,14.36-1.46,19.7-2.77l33.58-8.24c5.34-1.31,13.94-3.94,19.1-5.83,0,0,23.53-8.65,40.61-15.55,21.04-8.49,50.88-21.9,50.88-21.9,5.02-2.25,13.02-6.35,17.78-9.1l53.68-31c4.76-2.75,7.51-.65,6.11,4.67l-8.89,33.66c-1.4,5.32-4.4,13.77-6.67,18.78l-14.78,32.77c-2.26,5.01-6.51,12.92-9.45,17.57l-13.32,21.09c-2.94,4.65-8.66,11.49-12.72,15.2l-20.24,18.5c-4.06,3.71-11.25,9.05-15.98,11.86l-19.81,11.78c-4.73,2.81-12.86,6.53-18.08,8.27l-11.03,3.68c-5.22,1.74-13.92,3.92-19.35,4.84l-29.28,4.98c-5.42.92-14.36,1.84-19.85,2.05l-25.01.92c-5.5.2-14.45-.26-19.89-1.03l-23.2-3.28c-5.45-.77-14.2-2.73-19.45-4.36l-12.9-4c-5.25-1.63-13.08-5.76-17.39-9.18l-13.33-10.57c-4.31-3.42-10.31-9.97-13.33-14.57l-12.02-18.29c-3.02-4.6-6.39-11.66-7.49-15.69s-3.69-19.16-3.31-24.64c0,0,.55-7.94,3.31-19.02,3.45-13.83,8.54-24.05,8.54-24.05,2.45-4.92,7.78-11.99,11.84-15.7l20.24-18.5c4.06-3.71,11.44-8.69,16.4-11.07l13.84-6.63c4.96-2.38,13.09-6.23,18.06-8.56s9.59-1.97,6.36.5Z"/>
  </g>
  <path d="M538.58,324.38c-1.2-.51-2.35-.18-3,0-1.26.36-2.06,1.07-2.42,1.4-.2.18-.77.72-1.28,1.59-.48.82-.74,1.62-.95,2.76l-.22,1.16c-.07,2.25-.27,4.69-.45,5.42s-1.79,6.04-3.17,10.17-4.75,10.2-7.5,13.5-7.48,8.02-10.5,10.5-9.44,6.67-14.26,9.32l-2.48,1.36c-4.82,2.65-12.79,6.83-17.71,9.29l-.11.06c-4.92,2.46-12.99,6.05-17.94,7.97s-7.36,7.69-5.36,12.81l1.71,4.38c2,5.12,7.09,6.41,11.29,2.87l3.7-3.12c4.21-3.54,11.48-8.81,16.15-11.7l3.99-2.47c4.68-2.89,12.19-7.84,16.69-11l3.62-2.53c4.51-3.15,10.98-9.27,14.39-13.59l3.61-4.58c3.41-4.32,7.54-11.39,9.19-15.71s3.3-8.76,3.67-9.86c.37-1.1,1.39-6.25,1.47-9l.33-1.48c.25-1.11.55-2.03.53-3.52-.03-2.34-.83-3.72-1-4-.41-.68-.93-1.55-2-2Z"/>
</svg>